<?xml version="1.0" encoding="UTF-8" standalone="no"?><!DOCTYPE svg PUBLIC "-//W3C//DTD SVG 1.1//EN" "http://www.w3.org/Graphics/SVG/1.1/DTD/svg11.dtd"><svg width="100%" height="100%" viewBox="0 0 3 2" version="1.1" xmlns="http://www.w3.org/2000/svg" xmlns:xlink="http://www.w3.org/1999/xlink" xml:space="preserve" xmlns:serif="http://www.serif.com/" style="fill-rule:evenodd;clip-rule:evenodd;stroke-linejoin:round;stroke-miterlimit:2;"><path d="M0.447,0.541l-0.003,-0c0,0.002 0.003,0.002 0.003,-0c0.057,-0.008 0.125,-0.014 0.188,-0.019l0.006,-0c0.004,0.001 -0.002,0.002 -0.004,0.001c-0.004,0.002 -0.013,-0 -0.012,0.009c0.012,-0.001 0.037,-0.006 0.052,-0.004c-0.003,0.015 -0.013,0.008 -0.019,0.008c-0.021,0 -0.043,0.008 -0.068,0.011c-0.041,0.007 -0.089,0.006 -0.125,0.015c-0.03,0.008 -0.064,0.004 -0.089,0.014c-0.021,0.008 -0.029,0.039 -0.055,0.035c-0.011,0.066 -0.043,0.107 -0.065,0.16c-0.002,0 -0.003,0.001 -0.005,0.002c-0.008,0.04 -0.017,0.079 -0.014,0.126c-0.001,0 -0.002,-0.004 -0.003,-0.003c-0.006,0.011 -0.001,0.039 -0.001,0.057c0,0.013 -0,0.027 -0.001,0.034c-0,0.003 -0.002,0.003 -0.003,0.006c-0.002,0.004 0.001,0.01 -0.003,0.013c-0,0.009 0.007,0.009 0.009,0.016c-0.003,-0.002 -0.006,-0.003 -0.009,-0.006c-0.001,0.005 -0.005,0.012 0.001,0.015c0.006,-0.001 -0.002,-0.005 0,-0.009c0.004,0.002 0.006,0.005 0.007,0.011c-0.006,-0.002 -0.003,0.004 -0.002,0.007c-0.015,0.008 -0.022,0.025 -0.036,0.034c-0.011,-0.007 -0.009,-0.037 -0.007,-0.055c-0.004,-0.008 -0.017,-0.005 -0.021,-0.015c-0.007,0.003 -0.013,0.008 -0.02,0.007c0.005,-0.008 0.005,-0.013 0.008,-0.021c-0.006,-0.014 -0.009,0.005 -0.013,0.01c-0.006,0.001 -0.005,-0.008 -0.011,-0.01c-0.012,0.005 -0.015,-0.007 -0.025,-0.003c-0.007,-0.004 -0.01,-0.014 -0.021,-0.014c0.001,-0.005 0.002,-0.005 0.001,-0.011c-0.014,-0.019 -0.03,-0.035 -0.04,-0.059c-0,-0.006 0.003,0.001 0.004,-0.004c-0.001,-0.005 -0.003,0.001 -0.006,-0c-0.01,-0.026 -0.005,-0.071 -0.021,-0.09c-0.012,0 -0.013,-0.013 -0.024,-0.014c0.001,-0.005 0.005,0 0.007,-0c0.004,-0.002 -0.001,-0.004 0,-0.008c0.014,0.017 0.03,-0.006 0.027,-0.023c-0.001,-0.004 -0.004,-0.01 -0.009,-0.004c-0.003,-0.01 0.008,-0.009 0.005,-0.018c0.017,-0 0.016,-0.028 0.018,-0.041c0.004,-0 0.004,0.004 0.004,0.009c0.014,-0.011 0.017,-0.036 0.025,-0.055c0.002,-0.004 0.006,-0.007 0.007,-0.012c0.01,-0.033 0.004,-0.072 0.019,-0.098c-0.005,0.018 -0.006,0.042 -0.009,0.062c0.008,-0.016 0.01,-0.045 0.011,-0.065c0.003,-0.001 0.003,-0.004 0.005,-0.006c0.001,-0.02 0.008,-0.037 0.012,-0.056c0.006,-0.028 0.02,-0.07 0.018,-0.1c0,-0.003 -0.002,-0.001 -0.003,-0.004c-0,0.001 0.003,-0.003 0.002,-0.006c-0.001,-0.004 -0.005,-0.002 0,-0.007c-0.003,-0 -0.004,-0.005 -0.006,-0.011c0.004,-0.006 0.009,-0.012 0.012,-0.02c-0.001,-0.006 -0.001,-0.012 -0.003,-0.016c0.003,-0.002 0.008,-0.002 0.008,-0.008c-0.003,-0.005 -0.01,-0.002 -0.017,-0.003c-0.003,0.002 -0.002,0.009 -0.002,0.015c-0.005,-0 -0.004,-0.002 -0.007,-0c-0.003,-0.007 -0.002,-0.011 -0.001,-0.019c-0.005,-0.002 -0.003,0.005 -0.007,0.004c-0.001,-0.006 -0.001,-0.014 -0.006,-0.016c-0.003,0.003 0,0.014 -0.005,0.014c-0.006,-0 -0.003,-0.009 -0.005,-0.014c-0.002,-0.006 -0.011,-0.009 -0.009,-0.017c-0.005,0 -0.009,-0.006 -0.008,-0.016c0.006,0.002 0.012,0 0.021,0.006c-0,0.005 -0.003,0.006 -0.005,0.01c0.007,0.012 0.022,0.013 0.029,0.023c0.006,-0.001 0.008,-0.006 0.013,-0.007c0.002,0.006 0.005,0.011 0.009,0.015c0.006,-0.011 0.005,-0.031 0.008,-0.045c0.002,0 0.003,0.001 0.005,0.001c-0.004,-0.006 -0.005,-0.009 -0.003,-0.019c-0.001,-0.004 -0.008,-0 -0.009,-0.003c0.004,-0.014 0.008,-0.028 0.019,-0.033c0.002,-0.003 -0.003,-0.005 0,-0.006c0.003,-0 0.003,0.002 0.004,0.003c0.01,-0.003 0.014,-0.016 0.021,-0.026c0.03,-0.045 0.076,-0.08 0.113,-0.116c0.012,-0.011 0.024,-0.02 0.035,-0.03c0.011,-0.009 0.018,-0.024 0.031,-0.029c0.003,0.01 0.005,0.02 0,0.028c0.002,0.004 0.015,-0.002 0.01,0.006c0.008,-0.007 0.014,-0 0.018,-0.013c0.003,0.003 -0.004,0.006 -0.003,0.011c0.005,0.004 0.011,0.005 0.017,0.005c0.029,0 0.064,0.002 0.1,0.001c0.053,-0.001 0.12,-0.015 0.15,0.022c0.034,-0.004 0.084,-0.014 0.112,-0.001c0.025,0.011 0.058,0.014 0.067,0.038c-0.01,0.025 -0.016,0.053 -0.028,0.076c0,0.005 0.003,0.005 0.003,0.011c-0.015,0.008 -0.038,0.009 -0.058,0.011c-0.002,0.003 -0.004,0.008 -0.003,0.015c-0.02,0.006 -0.036,0.002 -0.051,0.01c-0.011,0.006 -0.014,0.027 -0.025,0.037c-0.01,0.01 -0.018,0.01 -0.027,0.019c-0.001,0.004 -0.002,0.007 -0.001,0.011c-0.006,0 -0.006,-0.005 -0.011,-0.006c-0.013,0.003 -0.022,-0.005 -0.034,-0.007c-0.017,-0.004 -0.034,-0.008 -0.049,-0.012c-0.023,-0.005 -0.045,-0.015 -0.065,-0.01c0.019,0.045 0.053,0.073 0.087,0.1c0.002,0.002 0.003,0.005 0.004,0.008c0.02,0.014 0.045,0.007 0.067,0.008c0.015,0 0.032,0.008 0.041,0.008c0.007,0.001 0.013,-0.002 0.018,-0.001c0.008,0.001 0.013,0.009 0.021,0.01c0.001,0.001 0.004,-0.002 0.006,-0.001c0.006,0.004 0.01,0.012 0.018,0.014c-0.002,0.007 -0.003,0.016 -0.012,0.014c-0.003,-0.003 -0.001,-0.003 0.001,-0.006c-0.002,-0.004 -0.009,-0.005 -0.012,-0.003c-0.001,0.006 0.006,0.001 0.005,0.007c0.001,0.007 -0.008,0.001 -0.009,0.005c0.006,0.003 0.001,0.01 0.001,0.014l-0.009,0c-0.001,0.002 0.001,0.008 -0.001,0.008c0.002,0.005 0.01,0.003 0.008,0.013c-0.005,0 -0.012,-0.001 -0.013,0.004c0.004,0.003 0.009,0.004 0.013,0.005c0.004,0.006 0.007,0.013 0.01,0.022c-0.011,0.004 -0.021,0.008 -0.035,0.008c0.003,0.008 0.01,0.002 0.015,0.006c-0.003,0.005 -0.013,-0.001 -0.017,0.004c-0.001,0.005 0.007,0.001 0.007,0.004c-0.012,-0.003 -0.024,0.002 -0.044,0.001c-0.006,0.006 -0.007,0.017 -0.017,0.016c0.001,-0.006 0.009,-0.004 0.009,-0.012c-0.095,0.015 -0.209,0.022 -0.306,0.031c-0.006,0.001 -0.015,-0.003 -0.018,0.004c0.035,0.004 0.076,-0.007 0.115,-0.007c-0,0 -0,0.002 -0.001,0.001c0.001,0.003 -0.001,0.002 -0.001,0.004Zm0.289,-0.366c-0.003,0.004 0.001,0.005 -0.001,0.01c0.012,-0.005 0.024,0.003 0.033,-0.003c-0.008,-0.006 -0.02,-0.009 -0.032,-0.007Zm-0.005,0.002c-0.001,0 -0.002,-0 -0.002,0.001c0.001,-0.001 0.002,0 0.002,-0.001Zm0.048,0.011c0.001,0.001 -0,-0 0,0Zm-0.13,0.009c0.008,-0 0.028,0.002 0.033,-0.006c-0.012,0 -0.025,-0 -0.033,0.006Zm0.069,-0.001c-0.001,0 -0.003,-0 -0.003,0.001c0.001,-0 0.003,-0 0.003,-0.001Zm-0.503,0.036c0.004,-0.004 0.009,-0.023 0.005,-0.029c-0,0.009 -0.008,0.014 -0.005,0.029Zm0.43,-0.026c0.012,-0.002 -0.004,-0.004 -0.009,0.001c0.006,0.001 0.006,-0.001 0.009,-0.001Zm-0.018,0.001c-0.002,0 -0.004,0 -0.004,0.002c0.001,-0 0.003,0 0.004,-0.002Zm0.085,0.003c-0.013,-0 -0.007,0.008 -0,0Zm-0.037,0.006c0.003,-0.001 0.012,0.003 0.012,-0.003c-0.003,0.002 -0.014,0 -0.012,0.003Zm-0.035,0.003c-0.001,0.001 -0.003,-0 -0.003,0.001c0.001,0 0.003,0.001 0.003,-0.001Zm0.008,-0c-0.007,-0.002 -0.002,0.005 0,-0Zm-0.451,0.022c-0.002,0.001 -0.006,0.006 -0.003,0.007c0.001,-0.002 0.003,-0.003 0.003,-0.007c0.006,0.005 0.009,-0.012 0.007,-0.018c-0.006,-0.001 -0.006,0.005 -0.01,0.006c0,0.005 0.004,0.006 0.003,0.012Zm0.421,0.004c0.003,-0 0.005,-0 0.005,-0.004l-0.005,0l0,0.004Zm-0.185,0.084c-0.007,0.018 -0.02,0.03 -0.025,0.05c0.014,0.002 0.025,-0.002 0.033,-0.007c-0,0.003 0,0.005 0.003,0.004c0.024,0.001 0.037,0 0.057,-0.001c0.008,0.012 0.03,0.007 0.04,0.003c0.016,-0.005 0.035,0.007 0.037,-0.015c-0.026,-0.016 -0.042,-0.045 -0.064,-0.066c-0.003,-0.003 -0.008,-0.003 -0.012,-0.007c-0.011,-0.011 -0.016,-0.031 -0.027,-0.041c-0.014,-0.001 -0.033,-0.004 -0.047,-0c0.002,0.007 0,0.01 0.003,0.016c-0.001,0.004 -0.006,0.002 -0.006,0.007c0.002,0.006 0.005,0.009 0.006,0.015c-0.003,0.006 -0.003,0.001 -0.008,0.003c-0.001,0.005 0,0.008 0.001,0.012c-0.002,0.004 -0.004,0.003 -0.005,0.007c-0.006,0.029 -0.016,0.048 -0.018,0.07c0.012,-0.015 0.02,-0.036 0.032,-0.05Zm-0.011,-0.073l0.003,-0c-0,-0.002 0.001,-0.002 0.001,-0.005l-0.003,0c0,0.002 -0.001,0.002 -0.001,0.005Zm-0.012,0.01c0.002,0.005 0.003,-0.005 0,0Zm-0.211,0.104c0.018,-0.01 0.02,-0.054 0.017,-0.081c-0.005,0.028 -0.012,0.054 -0.017,0.081Zm-0.004,-0.067c-0.001,-0 -0.001,0 -0.001,0.001l-0.001,0c-0.001,0.001 -0.002,0.004 0,0.004c0.001,-0.001 0.002,-0.002 0.001,-0.004c0.001,0.001 0.001,-0.001 0.001,-0.001c0.004,-0.003 0.005,-0.008 0.006,-0.012c-0.004,0.001 -0.004,0.008 -0.006,0.012Zm0.226,-0.001c0.001,0 -0.001,-0.001 -0,-0Zm-0.236,0.014c0.001,0.005 0.003,-0.006 -0,0Zm0.201,0.038c0,0.006 0.005,0 0,0c-0,-0.001 -0.001,-0.002 -0.001,-0.004c0.001,-0.006 0.004,-0.007 0.009,-0.007c-0.001,-0.007 0.003,-0.011 0.003,-0.019c-0.009,0.005 -0.007,0.023 -0.019,0.026c0.002,0.009 -0.006,0.007 -0.002,0.015c-0.006,0.001 -0.008,0.008 -0.01,0.014c0.012,0.008 0.015,-0.019 0.02,-0.025Zm0.01,0.012c-0.003,0.005 -0.01,0.008 -0.006,0.013c0.007,-0.005 0.016,-0.03 0.018,-0.043c-0.005,0.009 -0.008,0.021 -0.012,0.03Zm-0.228,-0.004c0.003,-0.001 0.004,-0.005 0.006,-0.008c-0.005,-0 -0.006,0.003 -0.006,0.008Zm-0.011,0.006c0.003,0 0.007,-0.005 0.003,-0.008c-0.001,0.003 -0.004,0.002 -0.003,0.008Zm0.053,0.005c0,-0.002 0.004,-0.008 0.001,-0.01c-0.001,0.002 -0.005,0.008 -0.001,0.01Zm-0.009,0.028c0.005,-0 0.007,-0.013 0.005,-0.017c0.001,0.008 -0.005,0.008 -0.005,0.017Zm-0.03,-0.006c0.002,0.006 0.002,-0.005 0,0Zm-0.031,0.022c-0.001,0.009 0.001,-0.005 0,0Zm0.393,0.015c0.018,-0.001 0.03,-0.002 0.05,-0.001c-0.012,-0.005 -0.038,-0.003 -0.05,0.001Zm0.058,-0.004c-0.001,0 -0.002,-0 -0.002,0.001c0.001,-0 0.002,-0 0.002,-0.001Zm-0.451,0.008c0,-0.004 0,-0.007 -0.002,-0.007c0,0.003 -0.002,0.009 0.002,0.007Zm0.257,0.003c0.021,-0.003 0.052,0.003 0.075,-0.007c-0.027,-0 -0.052,0.002 -0.075,0.007Zm0.272,0.022l-0,-0.004l-0.004,-0c-0,0.003 0.001,0.005 0.004,0.004Zm0.008,-0.004c-0.001,0.001 -0.002,-0 -0.002,0.001c0.001,0 0.002,0 0.002,-0.001Zm-0.202,0.008c0.002,0.006 0.017,0.004 0.019,0c-0.005,0 -0.013,-0.003 -0.019,0Zm0.047,-0.001c-0.001,0.001 -0.003,0 -0.003,0.001c0.001,0 0.003,0 0.003,-0.001Zm-0.023,0.001c-0.001,0.001 -0.003,0 -0.003,0.002c0.001,-0 0.003,0 0.003,-0.002Zm0.12,0.026c0.009,-0.002 0.02,0.006 0.028,-0.002c-0.003,-0 -0.009,0.002 -0.01,-0.001c0.004,-0.002 0.008,-0.002 0.009,-0.007c-0.007,-0 -0.02,0.005 -0.027,0.01Zm0.065,-0.006l0.004,0c-0,-0.002 -0.001,-0.004 -0.004,-0.003l0,0.003Zm-0.348,0.007c0.015,0.004 0.036,-0 0.047,-0.003c-0.011,-0 -0.037,-0.005 -0.047,0.003Zm0.174,-0.001c-0.022,0.001 -0.046,0.002 -0.065,0.007c0.039,0.002 0.08,-0.006 0.12,-0.004c-0.015,-0.007 -0.037,-0.004 -0.055,-0.003Zm0.057,0.003c0.002,-0 0.003,-0.002 0.004,-0.003c-0.002,-0 -0.004,-0 -0.004,0.003Zm0.006,-0c0.01,0.003 0.021,0.003 0.03,-0.002c-0.013,0 -0.024,-0.003 -0.03,0.002Zm0.044,0.006c0.01,0 0.031,0.002 0.035,-0.009c-0.007,0.008 -0.026,0.002 -0.035,0.009Zm-0.012,-0.006c0.001,0.001 -0,-0.001 0,-0Zm-0.177,-0c-0.001,-0 -0.003,-0 -0.003,0.001c0.001,-0 0.003,0 0.003,-0.001Zm0.232,0.001c0.001,0.001 -0,-0.001 0,-0Zm-0.216,0.015c0.002,0 0.006,-0.002 0.005,0.003c-0.014,-0.003 -0.032,-0.005 -0.039,0.007c0.024,0.013 0.051,0.002 0.077,-0c0.006,-0.001 0.012,0.002 0.017,0.001c0.011,-0.002 0.019,-0.014 0.029,-0.008c-0,0.003 -0.006,-0 -0.006,0.004c0.024,-0.006 0.059,-0.009 0.085,-0.018c-0.056,-0.001 -0.117,0.004 -0.168,0.011Zm-0.305,-0.002c0.006,-0.006 -0.004,-0.006 -0,0Zm0.205,0.002c0.014,-0 0.027,-0.002 0.039,-0.005c-0.009,0.001 -0.032,-0.003 -0.039,0.005Zm-0.211,0.083c0.007,0.002 -0.002,0.01 0.002,0.015c0.007,-0.008 0.011,-0.028 0.011,-0.038c0,0.002 -0.003,0.002 -0.003,0c0.003,-0.019 0.011,-0.041 0.011,-0.06c-0.008,0.027 -0.016,0.054 -0.021,0.083Zm0.281,-0.082c-0.005,-0.001 -0,0.005 -0,0c0.001,-0.001 -0,-0.001 -0,0Zm-0.105,0.008c0.006,0.002 0.018,-0.001 0.021,-0.008c-0.009,0.001 -0.014,0.003 -0.018,0.002c0.003,0.001 -0.003,0.003 -0.003,0.006Zm0.099,-0.008c-0.001,0.001 -0.003,0 -0.003,0.002c0.001,-0 0.003,-0 0.003,-0.002Zm-0.249,0.013c-0,-0.002 0.004,-0.007 0,-0.008c-0.001,0.001 -0.002,0.008 0,0.008Zm0.178,-0.007c0.001,0.001 -0.001,-0.001 -0,-0Zm0.03,-0c0.001,0.001 -0.001,-0.001 -0,-0Zm-0.055,0.009l0.005,0l-0,-0.004c-0.003,-0.001 -0.004,0.002 -0.005,0.004Zm-0.168,0.13c0.007,-0.013 0.006,-0.035 0.012,-0.05c0.002,0.001 0.001,0.006 0.005,0.004c-0.002,-0.025 0.021,-0.056 0.007,-0.077c-0.009,0.041 -0.021,0.077 -0.024,0.123Zm0.117,-0.115c-0.001,0 0,0.002 0,-0c0.002,-0.001 0,-0.002 0,-0Zm0.129,0.007c0.015,-0.002 0.035,0 0.047,-0.007c-0.016,0.003 -0.036,-0 -0.047,0.007Zm-0.012,0.001c0.002,-0 0.008,0.002 0.008,-0.001c-0.001,-0.002 -0.011,0 -0.008,0.001Zm-0.121,0.002l-0.001,0c-0.001,0.001 -0.002,0.004 -0,0.004c-0,-0.001 0.001,-0.002 0.001,-0.004c0.001,-0.001 -0.001,-0.002 -0,0Zm0.115,-0.002c-0.002,0.001 -0.007,-0.002 -0.007,0.002c0.002,-0.001 0.007,0.002 0.007,-0.002Zm-0.114,0.009c0.001,0.001 -0.001,-0 -0,0Zm-0.07,0.056c0.001,0.001 -0,-0 0,0Zm-0.061,0.007l-0,0.004c0.003,0.002 0.003,-0.005 0.001,-0.005c0,0.001 -0,0.001 -0.001,0.001Zm-0.002,0.028c0.006,-0.002 0.008,-0.018 0.002,-0.022c-0.003,0.005 -0.003,0.014 -0.002,0.022Zm0.013,-0.015c-0.001,0.009 0,-0.005 -0,0Zm-0.023,0.088c0.003,0.006 0.003,-0.006 0.006,-0.001c0.001,0.026 -0.014,0.049 -0.009,0.071c0.013,-0.004 0.011,-0.031 0.012,-0.052c0.003,-0.031 0.007,-0.067 0.009,-0.089c-0.01,0.021 -0.018,0.043 -0.018,0.071Zm-0.041,0.007c-0.001,-0.024 0.007,-0.047 0.011,-0.073c-0,-0.001 -0.001,-0.001 -0.002,-0.001c-0.007,0.021 -0.024,0.052 -0.009,0.074Zm0.183,0.003c0.004,-0.023 0.014,-0.046 0.015,-0.066c-0.006,0.019 -0.014,0.045 -0.015,0.066Zm-0.21,0.036c0.019,-0.002 0.008,-0.044 0.012,-0.058c-0.008,0.017 -0.006,0.039 -0.012,0.058Zm-0.005,-0.016c0.001,0.006 0.001,-0.006 -0,-0Zm0.036,0.056c0.006,-0.016 0.015,-0.037 0.015,-0.056c-0.006,0.016 -0.018,0.038 -0.015,0.056Zm-0.034,-0.05c0.001,0.001 -0,-0.001 0,-0Zm0.007,0.051c0.002,0.005 0.003,-0.005 0,0Zm0.039,0.033c0.002,0.003 0.008,0.008 0.011,0.006c-0.001,-0.012 -0.005,-0.019 -0.01,-0.025c-0,0.006 0.001,0.009 -0.001,0.019Zm-0.023,0.005c-0.007,-0.005 -0.019,-0.003 -0.027,-0.007c0.005,0.007 0.02,0.009 0.027,0.007Zm0.034,0.005c-0,-0.001 -0.002,-0.002 -0.003,0c0.001,-0.001 0.002,0.002 0.003,0Zm0.121,0.179l-0,-0.009l-0.004,0c0.001,0.004 0,0.009 0.004,0.009Zm0.002,0.005c0.002,0.005 0.002,-0.007 0,-0Zm0.005,0.002c-0.003,0.005 0.004,-0.003 -0,0Zm-0.007,0.005c0.001,0.005 0.001,-0.006 -0,-0Z" style="fill:#0b0000;"/><path d="M1.951,0.74c-0.004,-0.008 -0.011,0.004 -0.014,-0.004c-0.004,0.001 0,0.005 -0,0.007c-0.025,-0 -0.044,-0 -0.067,-0.001c-0.013,-0.001 -0.036,-0.006 -0.04,-0.001c-0.015,0.018 -0.025,0.043 -0.04,0.063c-0.027,0.038 -0.055,0.075 -0.086,0.104c0.006,0.002 0.014,-0.006 0.018,-0.012c-0.011,0.024 -0.041,0.037 -0.063,0.053c-0.017,0.002 -0.036,-0.003 -0.049,-0.009c-0.014,-0.006 -0.028,-0.021 -0.044,-0.028c-0.005,-0.002 -0.011,-0.001 -0.016,-0.003c-0.005,-0.002 -0.01,-0.008 -0.015,-0.01c-0.026,-0.012 -0.057,-0.011 -0.088,-0.008c-0.016,0.002 -0.029,0.01 -0.042,0.012c-0.038,0.005 -0.055,-0.062 -0.06,-0.103c-0.011,-0.015 -0.024,-0.034 -0.019,-0.065c-0.002,-0.002 -0.013,0 -0.018,-0.003c0.001,0.006 0.007,0.007 0.011,0.009c-0.012,0.004 -0.024,0.003 -0.036,0.003c0.008,0.004 0.014,0.012 0.021,0.018c0,0.004 -0.003,0.004 -0.006,0.004c-0.001,0.005 0.002,0.005 0.003,0.006c-0.013,0.005 -0.024,0.004 -0.036,0.003c0.006,0.003 0.016,0.007 0.013,0.016c-0.005,0.001 -0.006,-0.003 -0.011,-0.001c-0.001,0.005 0.009,0.009 0.015,0.011c-0.001,0.003 -0.005,0.003 -0.005,0.006c0.004,0.002 0.01,-0.008 0.012,-0.014c0.002,-0 0.003,0.001 0.002,0.004c-0.001,0.001 -0.002,0.001 -0.002,0.003c0.001,0 0.003,0 0.003,-0.001l0.004,-0c-0,0.003 -0.004,0.002 -0.003,0.006c-0.001,0.002 0.006,0.002 0.005,-0c0.001,0.009 0.003,0.026 -0.002,0.034c0.005,0.017 0.01,0.043 -0.012,0.039c0,0.002 0.002,0.002 0.003,0.003c-0.055,0.023 -0.131,0.013 -0.196,0.018c-0.002,0.001 -0.002,0.004 -0.005,0.004c-0,0.005 0.003,0.005 0,0.008c-0.015,-0.002 -0.029,0.001 -0.043,0.004c-0.023,0.006 -0.042,0.029 -0.061,0.04c-0.005,0.003 -0.012,0.002 -0.018,0.004c-0.028,0.011 -0.059,0.041 -0.084,0.014c-0.007,0.004 -0.012,-0.003 -0.017,-0.007c0.001,-0.003 0.005,-0.006 0,-0.008c-0.004,-0.003 -0,0.006 -0.003,0.006c-0.009,-0.002 -0.01,-0.022 -0.023,-0.015c-0.013,-0.011 -0.033,-0.014 -0.047,-0.023c-0.004,-0.014 -0.012,-0.023 -0.018,-0.035c-0.004,0.009 0.01,0.019 0.009,0.025c-0.005,0.002 -0.007,-0.009 -0.011,-0.014c-0.003,0.001 0.001,0.005 0,0.008c-0.006,-0.01 -0.014,-0.018 -0.014,-0.034c-0.008,-0.001 0.001,0.009 -0.005,0.009c0,-0.011 -0.006,-0.016 -0,-0.021c-0.003,-0.006 -0.005,-0.003 -0.011,-0.005c0.001,-0.003 0.005,-0.004 0.009,-0.004c-0.001,-0.007 -0.01,-0.001 -0.018,-0.003c0.003,-0.006 0.014,-0.001 0.017,-0.007c-0.006,-0.003 -0.02,0.006 -0.025,-0.005c0.006,-0 0.01,0.001 0.017,-0.001c0,-0.017 -0.012,-0.025 -0.009,-0.04c0.003,-0 0.005,0.004 0.008,0c-0.004,-0.015 -0.012,-0.033 -0.009,-0.051c0.004,-0.003 0.005,0.003 0.011,0.003c0.004,-0.004 0.002,-0.007 0.002,-0.015c0.004,0.002 0.003,-0.001 0.006,-0.001c-0.003,-0.004 0.003,-0.011 0,-0.014c0.003,-0.005 0.004,-0.001 0.007,-0c0.002,-0.005 0.002,-0.011 0.003,-0.018c-0.004,-0.008 -0.012,-0.008 -0.016,-0.015c-0.001,-0.005 0.002,-0.006 0.001,-0.011c0.008,0 0.013,0.003 0.018,0.007c0.011,-0.012 -0.002,-0.028 -0.008,-0.034c0.005,0.001 0.003,-0.007 0.006,-0.008c-0.007,-0.012 -0.011,-0.023 -0.009,-0.04c0.004,0.002 0.002,0.01 0.005,0.012c0.003,-0.002 0,-0.008 0,-0.011c0.004,0.001 0.005,0.006 0.005,0.012c0.008,-0.001 0.008,-0.015 0.017,-0.011c0.001,-0.006 0.003,-0.012 0.003,-0.02c0.009,-0.015 0.015,-0.032 0.018,-0.053c0.021,-0.063 0.041,-0.142 0.051,-0.22c0.005,-0.031 0.018,-0.07 -0.003,-0.093c0.003,-0.009 -0.002,-0.018 -0.001,-0.026c0.001,-0.008 0.006,-0.012 0.009,-0.019c0.003,-0.007 0.003,-0.015 0.006,-0.021c0.005,-0.006 0.014,-0.011 0.01,-0.023c0.002,-0.004 0.004,0.002 0.007,-0.001c0.013,-0.021 0.031,-0.035 0.048,-0.052c0.003,-0 0.003,0.004 0.007,0.004c0.136,-0.035 0.282,0.016 0.408,0.036c-0,0.002 -0.002,0.003 -0.002,0.005c0.004,0.004 0.015,0.002 0.023,0.004c-0.006,0.005 -0.017,0.004 -0.025,0.003c-0.006,0.006 -0.013,0.011 -0.024,0.01c0.002,0.003 -0.003,0.006 -0.001,0.009c-0.009,0.008 -0.027,0.005 -0.034,0.016c0.001,0.004 0.003,-0.002 0.006,-0c-0.004,0.008 0.003,0.009 0.007,0.011c-0.001,0.003 -0.003,0.005 -0.007,0.005c-0,0.003 0.002,0.003 0.001,0.007c-0.005,0.002 -0.01,0.004 -0.012,0.012c-0.005,0.001 -0.009,0.001 -0.014,0.004c0.005,0.009 -0.011,0.01 -0.016,0.016c0.005,0.006 0.01,-0 0.018,0.001c-0.018,0.018 -0.049,0.02 -0.077,0.026c-0.001,0.006 0.003,0.008 0.007,0.008c-0.042,0.021 -0.122,-0.012 -0.156,0.019c0.004,0.029 -0.005,0.052 -0.007,0.079c0.002,0.003 0.01,0 0.013,0.003c0.003,-0.002 0.004,-0.006 0.005,-0.01c0.01,0.002 0.014,-0.01 0.024,-0.005c0.004,-0.003 0.002,-0.009 0.011,-0.01c0.004,0 0,0.001 0.001,0.004c0.016,-0.006 0.034,-0.005 0.05,-0.006c0.033,-0.001 0.069,-0.01 0.093,0c0.003,-0.001 0.008,-0 0.01,-0.003c0.002,0.014 0.02,0.015 0.035,0.018c0.004,-0.007 -0.009,-0.005 -0.012,-0.007c0.001,-0.004 0.008,0 0.009,-0.003c0,-0.004 -0.004,-0.003 -0.006,-0.005c0,-0.003 0.005,-0 0.007,-0.001c0,0.015 0.019,0.008 0.019,0.022c-0.005,-0.003 -0.006,-0.011 -0.015,-0.009c0.003,0.01 -0.002,0.016 0.007,0.021c0.003,0 0,-0.005 -0,-0.006c0.001,-0 0.002,0 0.002,-0.001c0.005,0.004 0.007,0.014 0,0.016c0.001,0.008 0.005,0.011 0.007,0.018c-0,0.013 -0.007,0.019 -0.008,0.032c-0.004,-0.001 -0.005,-0.004 -0.009,-0.004c-0.002,0.005 -0.004,0.01 -0.007,0.013c0.008,0.017 0.028,0.03 0.019,0.058c-0.003,0.005 -0.018,-0.007 -0.017,0.006c-0.009,-0.003 -0.018,0.003 -0.027,0.006c-0.026,-0.006 -0.069,-0.001 -0.098,0.007c0.001,0.005 0.01,-0.002 0.009,0.005c-0.007,-0.002 -0.01,0.001 -0.015,0.003c-0,0.005 0.004,0.004 0.007,0.004c-0.002,0.01 -0.008,0.002 -0.014,0.001c-0.017,-0.001 -0.037,0.01 -0.054,0.012c-0.002,0 -0.003,0.002 -0.003,0.004c-0.003,-0.004 -0.009,0.001 -0.012,-0.001c-0.002,-0 -0.001,0.003 -0.001,0.006c-0.005,-0.004 -0.003,-0.001 -0.009,-0c-0.005,0.001 -0.003,0.01 -0.005,0.015c-0.003,-0.003 0.001,-0.004 -0.001,-0.008c-0.007,0.007 -0.006,0.015 -0.009,0.025c0.007,0.002 0.005,-0.008 0.012,-0.006c-0.001,0.006 -0.009,0.006 -0.005,0.015c-0.002,0.003 -0.008,-0.007 -0.007,0.004c-0.004,0.001 -0.001,-0.006 -0.006,-0.004c-0.001,0.007 0.006,0.004 0.006,0.008c-0,0.008 -0.001,-0.002 -0.003,-0.001c-0.001,0.008 0.001,0.009 -0.004,0.015c0.004,0.007 0.006,-0.003 0.013,-0c-0.003,0.008 -0.006,0.007 -0.006,0.019c-0.01,0.004 -0.02,0.011 -0.024,0.023c-0.003,-0.003 0.001,-0.009 0,-0.013c-0.007,-0.006 -0.01,0.011 -0.015,0.007c-0.003,-0 -0.001,0.005 -0.001,0.007c-0.002,-0 -0.003,-0.002 -0.005,-0.003c-0.002,0.003 -0.002,0.011 -0.007,0.014c-0.004,-0.004 0.001,-0.003 0.001,-0.008c-0.006,-0.002 -0.002,0.008 -0.007,0.007c-0.005,0.023 -0.013,0.043 -0.017,0.067c0.006,0.002 0.01,-0.008 0.019,-0.008c-0.002,0.008 -0.013,0.004 -0.013,0.012c0.012,0.007 0.023,-0.015 0.031,-0.008c0.001,-0.002 0.001,-0.005 0.003,-0.007c0.019,-0.002 0.027,-0.017 0.049,-0.014c-0.001,0.002 -0.003,0.003 -0.005,0.004c0.015,0.013 0.049,-0.004 0.064,0.01c0.002,-0.002 0.008,-0.006 0.012,-0.003c0,0.006 -0.007,0.002 -0.01,0.003c0.005,0.005 0.013,0.003 0.015,-0.004c0.004,0.003 0.007,0.006 0.013,0.003c-0.003,0.004 0,0.002 0.001,0.004c0.017,0.002 0.019,-0.006 0.036,-0.004c-0,0.003 -0.001,0.004 -0.004,0.003c0,0.005 0.012,0.005 0.011,-0.001c0.012,-0.001 0.025,0.006 0.04,0.006c0.003,0.003 -0.008,0.001 -0.009,0.003c0.014,0.006 0.045,0.014 0.056,0c-0.001,-0.005 -0.008,-0.002 -0.008,-0.008c0.012,-0.002 0.024,0.006 0.039,0.006c0.003,0.002 -0.008,0 -0.009,0.003c0.009,0.007 0.025,0.005 0.038,0.007c0.005,-0.007 0.007,-0.018 0.012,-0.025c-0.001,-0.07 0.005,-0.146 0.017,-0.204c0.009,-0.088 0.044,-0.146 0.053,-0.229c0.005,-0.006 0.005,-0.019 0.012,-0.022c0.001,-0.006 0.001,-0.013 0.004,-0.016c-0.007,-0.015 0.001,-0.036 -0.003,-0.044c0.002,-0.005 0.008,-0.004 0.01,-0.007c-0.001,-0.004 -0.006,-0.012 0.001,-0.012c-0.003,-0.005 -0.005,-0.01 -0.005,-0.018c0.003,0 0.006,0 0.007,-0.001c-0.001,-0.004 -0.002,-0.007 -0.001,-0.012c0.004,0.002 0.004,-0.001 0.003,-0.006c0.003,0.001 0.005,0.003 0.007,0c-0.003,-0.005 0.001,-0.013 -0.005,-0.017c0.004,-0.007 0.007,-0.02 0.004,-0.03c0.009,-0.005 0.014,-0.014 0.02,-0.022c0.013,0.006 0.019,0.022 0.03,0.031c0.017,-0.001 0.025,0.007 0.035,0.014c0.005,-0.004 0.008,-0.011 0.012,-0.015c0.025,-0.008 0.023,0.02 0.021,0.041c-0.005,0.001 -0.009,0.002 -0.011,0.007c0.002,0.003 0.004,0.006 0.009,0.006c0.004,-0.001 0.002,-0.004 0.001,-0.007c0.003,0 0.003,-0.002 0.005,-0.002c0.002,-0.025 0.027,-0.008 0.027,0.008c0.001,0.005 -0.004,0.001 -0.003,0.006c0,0.005 0.003,0.006 0.005,0.008c-0.002,0.008 -0.006,0.014 -0.009,0.021c0.021,0.019 -0.005,0.041 -0.017,0.062c-0.001,0.002 -0.001,0.006 -0.001,0.007c-0.004,0.008 -0.01,0.012 -0.012,0.018c-0.003,0.021 -0.006,0.033 -0.009,0.052c-0.01,0.063 -0.02,0.13 -0.025,0.201c-0,0.01 0.002,0.02 -0.003,0.029c-0.001,0.005 0.004,0.004 0.003,0.009c-0.002,-0 -0.003,0 -0.005,0.001c0,0.004 0.002,0.004 0.001,0.008c-0.013,0.023 -0.006,0.059 -0.013,0.089c0.058,0.014 0.131,0.024 0.177,0.069c0.006,-0.004 0.01,-0.009 0.014,-0.015c-0.004,-0.011 -0.005,-0.022 -0.015,-0.028c-0.003,-0.02 -0.017,-0.038 -0.023,-0.059c0.002,-0.008 -0.002,-0.014 -0.005,-0.019c-0.001,-0.007 0.004,-0.006 0.003,-0.013c-0.005,-0.005 -0.01,-0.005 -0.015,0.001c0.001,-0.007 0.007,-0.008 0.011,-0.012c-0,-0.005 -0,-0.011 0.001,-0.014c-0.002,-0.003 -0.005,-0.003 -0.006,-0.006c0.005,-0.013 0.006,-0.03 -0.003,-0.036c0.004,-0.005 0.014,-0.003 0.017,-0.009c0.008,0.007 0.021,0.037 0.031,0.016c0.007,0.007 0.015,0.013 0.027,0.014c0.003,-0.001 -0.002,-0.004 -0,-0.007c0.014,0.001 0.029,-0.003 0.031,-0.019c0.008,0.004 0.016,-0.005 0.025,-0c-0.001,-0.007 -0.008,-0.004 -0.007,-0.011c0.008,-0.002 -0.005,-0.005 -0.011,0c-0.002,-0.004 -0.003,-0.005 -0.001,-0.01c0.013,0 0.021,0.014 0.032,0.011c-0.003,-0.009 -0.015,-0.009 -0.021,-0.014c0.013,-0.008 0.027,0.007 0.042,0.007c0.022,-0.037 0.029,-0.094 0.047,-0.135c0,-0.028 0.023,-0.043 0.017,-0.069c0.001,-0.004 0.004,-0.005 0.004,-0.011c-0.002,-0.006 -0.007,-0 -0.011,-0.001c0.009,-0.005 0.023,-0.024 0.015,-0.037c0.004,0.002 0.005,-0.001 0.007,-0.003c-0.009,-0.012 -0.022,-0.008 -0.036,-0.007c0,0.003 0.003,0.003 0.006,0.003c-0.009,0.004 -0.017,0.009 -0.02,0.021c-0.006,-0.006 0.003,-0.016 -0.005,-0.021c0.007,-0.004 0.008,-0.013 0.011,-0.022c0.009,-0.002 0.013,-0.01 0.02,-0.015c-0.008,-0.012 -0.025,-0.003 -0.033,0.008c0.001,-0.016 0.012,-0.033 0.025,-0.04c-0,0.004 -0.005,0.002 -0.005,0.007c0.003,0.005 0.008,-0.001 0.009,-0.004c-0,-0.002 -0.002,-0.003 -0.005,-0.003c0.007,-0.014 0.026,-0.004 0.029,-0.022c-0.005,-0.003 -0.024,-0.002 -0.029,0.007c-0.001,-0.009 0.014,-0.011 0.019,-0.017c0.001,-0.004 -0.001,-0.004 -0.001,-0.007c0.007,-0.001 0.011,-0.004 0.011,-0.013c0.006,-0.001 0.009,-0.004 0.012,-0.007c-0,-0.005 -0.006,-0.003 -0.008,-0.002c-0.001,-0.006 0.007,-0.002 0.007,-0.007c-0.003,-0.004 -0.011,-0.009 -0.015,-0.003c0.012,-0.026 0.061,-0.018 0.069,-0.053c0.011,-0.005 0.027,-0.006 0.037,0c0.016,-0.008 0.047,-0.021 0.06,-0.001c-0,0.031 0.026,0.02 0.032,0.044c0.007,-0 0.012,-0.001 0.019,0.001c0.006,0.011 0.001,0.024 -0.002,0.033c0.015,0.005 0.01,0.02 0.012,0.035c0.002,0.016 0.014,0.028 0.021,0.041c0.014,0.026 0.027,0.057 0.037,0.082c0.042,0.099 0.078,0.205 0.12,0.302c0.008,0.011 0.01,0.028 0.021,0.036c0.022,0.002 0.032,0.012 0.047,0.022c0.003,0.01 -0.005,0.026 0.003,0.031c0.001,0.003 -0.002,0.003 -0.003,0.004c0.001,0.006 0.01,0.006 0.009,-0.001c0.004,0.006 0.005,0.014 0.012,0.015c-0.001,0.004 -0.002,0.009 0.001,0.011c-0,0.007 -0.007,0.01 -0.003,0.018c-0.002,0.004 -0.008,0.003 -0.011,0.007c0,0.003 0.006,0.001 0.008,0.001c-0.003,0.011 -0.003,0.023 -0.006,0.033c0.001,0.004 0.003,0.007 0.005,0.01c-0.002,0.028 0.001,0.055 -0.007,0.078c0.009,0.035 0.021,0.081 0.012,0.12c-0.001,0.001 -0.002,0 -0.002,0.001c-0.008,0.002 -0.01,-0.003 -0.015,-0.006c-0.004,-0 -0.005,0.004 -0.008,0.005c-0.005,-0 -0.005,-0.006 -0.01,-0.007c-0.001,0.006 0.013,0.019 0.003,0.027c-0.008,-0.002 -0.009,-0.011 -0.015,-0.016c-0.003,0.01 -0.009,0.022 -0.005,0.04c-0.003,0.004 -0.008,0.003 -0.012,-0c-0.004,-0 -0.003,0.006 -0.006,0.007c-0.021,-0 -0.022,-0.025 -0.037,-0.031c0.004,0.011 0.009,0.019 0.016,0.025c-0.004,0.013 0.009,0.024 0.008,0.033c-0.003,0.024 -0.028,-0.002 -0.033,-0.003c-0.013,-0.003 -0.017,0.009 -0.027,-0c-0.014,-0.014 -0.024,-0.046 -0.035,-0.067c-0.008,-0.018 -0.021,-0.03 -0.024,-0.045c-0.014,-0.016 -0.018,-0.045 -0.035,-0.058c-0,-0.013 -0.011,-0.014 -0.018,-0.019c-0.001,-0.014 -0.01,-0.025 -0.024,-0.019c0,-0.003 0.004,-0.002 0.003,-0.006c0.004,0.004 0.007,-0 0.012,0.001c0.012,0.004 0.016,0.018 0.025,0.026c0.003,-0 0.003,-0.006 0.007,-0.006c-0.008,-0.018 -0.019,-0.032 -0.036,-0.04c0.003,-0.008 0.011,0.005 0.014,-0.003c-0.003,-0.005 -0.007,-0.008 -0.012,-0.011c0.002,-0.007 0.004,-0.006 0.007,-0.008c0.001,-0.008 -0.01,-0.002 -0.013,-0.006c0,-0.005 0.008,-0 0.007,-0.006c-0.001,-0.007 -0.006,-0.01 -0.011,-0.011c0,-0.006 0.006,-0.004 0.004,-0.012c-0.003,-0.004 -0.005,-0.005 -0.01,-0.003c0.007,-0.004 0.002,-0.008 -0.001,-0.012c0.004,0 0.007,0 0.006,-0.004c-0.012,-0.007 -0.021,-0.004 -0.036,-0.006c0.003,-0.004 0.011,-0.002 0.013,-0.006c0,-0.003 -0.001,-0.005 -0.003,-0.005c0.006,-0.004 0.015,-0.006 0.02,-0.011c-0.01,-0.009 -0.019,0.003 -0.027,0.007c-0.002,0.001 -0.005,-0 -0.007,0c-0.011,0.003 -0.018,0.014 -0.028,0.019c-0.016,0.008 -0.029,0.003 -0.044,0.003c-0.013,-0 -0.022,0.004 -0.027,-0.004c-0.003,0 -0.007,0 -0.008,0.004c0.003,0 0.003,0 0.002,0Zm-0.029,-0.654c0.003,0 0.005,-0.001 0.005,-0.003c-0.001,-0.001 -0.002,-0.002 -0.005,-0.002l0,0.005Zm0.021,0.005l-0,-0.003c-0.002,-0.004 -0.006,0.005 -0,0.003Zm-0.03,0.009l0.003,0c0.001,-0.003 -0,-0.006 -0.003,-0.006l-0,0.006Zm-0.013,0.005c0.001,0.001 0.004,0.001 0.005,-0.002c-0.002,-0.002 -0.005,-0.002 -0.005,0.002Zm-0.36,0.011c0.005,0.003 0.008,0.008 0.015,0.009c0.011,-0.013 -0.013,-0.027 -0.015,-0.009Zm0.553,0.012c-0,-0.004 0,-0.009 -0.003,-0.009c-0.001,0.003 -0.002,0.01 0.003,0.009Zm-0.554,0.005c0.004,0.001 0.007,-0.004 0.003,-0.005c-0.001,0.002 -0.002,0.002 -0.003,0.005Zm0.027,0.024c0.007,0.001 0.007,-0.008 0.009,-0.013c-0.006,-0.005 -0.011,0.003 -0.009,0.013Zm0.352,0c-0.001,0.004 0.001,0.005 0.005,0.004c0,-0.003 -0.001,-0.006 -0.004,-0.006c-0,0.002 -0,0.003 -0.001,0.002Zm-0.462,0.003c0.001,0.001 -0,-0 0,0Zm0.114,0.028c0.004,-0.007 0.001,-0.015 0.004,-0.025c-0.011,0 -0.014,0.022 -0.004,0.025Zm0.3,-0.02c0.001,0.006 -0.003,0.005 -0.003,0.01c0.007,-0.001 0.01,-0.013 0.018,-0.007c-0.002,0 -0.005,0 -0.005,0.004c0.005,0.002 0.011,0.002 0.016,0.004c0.001,-0.002 0.003,-0.003 0.002,-0.008c-0.003,-0.002 -0.007,-0.002 -0.012,-0.002c0,-0.001 0.002,-0.001 0.001,-0.004c-0.008,-0.002 -0.011,0.003 -0.017,0.003Zm0.031,-0c-0.001,0.004 0.004,0.003 0.006,0.004c0.001,-0.006 -0.004,-0.007 -0.006,-0.004Zm-0.622,0.014c0.001,0.005 0.003,-0.005 -0,0Zm0.594,0.014c0.007,0.003 0.013,0.006 0.021,0.008c-0.001,-0.006 -0.002,-0.012 -0.004,-0.016c-0.009,0 -0.016,-0.004 -0.017,0.008Zm-0.009,-0.002c0.003,0.001 0.002,0.001 0.006,-0c0,-0.004 -0.002,-0.005 -0.005,-0.004c-0,0.002 -0.001,0.003 -0.001,0.004Zm-0.009,-0.001c0,0.002 0.001,0.003 0.001,0.004c0.003,0.001 0.003,-0.002 0.005,-0.001c0.001,-0.006 -0.004,-0.006 -0.006,-0.003Zm0.031,0.013c-0.004,-0.003 -0.01,-0.005 -0.017,-0.004c0,0.01 0.015,0.007 0.017,0.004Zm-0.02,0.009c0,0.003 0,0.007 -0.002,0.007c-0.003,-0.005 -0.009,-0.002 -0.012,0c0.009,0.011 0.028,0.001 0.039,0.009c-0.001,-0.009 -0.008,-0.011 -0.009,-0.019c-0.008,-0.002 -0.01,0.003 -0.016,0.003Zm-0.33,0.01l0.002,0c0,-0.002 0.002,-0.002 0.001,-0.004l-0.002,-0c-0,0.002 -0.002,0.002 -0.001,0.004Zm0.34,0.009c0.003,0.002 0.006,0.004 0.012,0.004c0,-0.006 -0.011,-0.01 -0.012,-0.004Zm-0.375,0.004c-0.002,0.011 0.001,-0.005 -0,-0Zm0.346,-0c0.001,0.001 -0.001,-0.001 -0,-0Zm-0.315,0.016c0,0.011 -0.012,0.015 -0.012,0.033c0.007,-0.001 0.006,-0.012 0.012,-0.015c-0.02,0.041 -0.017,0.101 -0.023,0.159c-0.002,0.019 -0.007,0.04 -0.007,0.054c-0.003,0.047 -0.011,0.097 -0.01,0.136c-0.004,0.007 -0.003,0.019 -0.003,0.031c0.007,-0.001 0.007,0.009 0.013,0.004c0.007,-0.044 0.009,-0.087 0.014,-0.135c0.005,-0.048 0.007,-0.097 0.015,-0.142c0.008,-0.048 0.017,-0.092 0.02,-0.137c-0.005,-0.002 -0.014,0.006 -0.019,0.012Zm0.311,-0.009c0,-0.002 0.002,-0.003 0,-0.004c0,0.002 -0.002,0.004 0,0.004Zm-0.337,0.084c-0.001,0.001 -0.003,0 -0.003,0.001c0.001,0 0.003,0.001 0.003,-0.001Zm-0.236,0.022c0.001,-0.01 -0.01,-0.008 -0.017,-0.01c0.001,0.009 0.012,0.006 0.017,0.01Zm0.666,0.011l-0,0.003c0.002,0.004 0.004,-0.003 0.005,-0.005c-0.003,-0 -0.003,0.002 -0.005,0.002Zm-0.046,0.12c-0.004,-0.001 -0.003,0.006 -0.006,0.007l0,-0.006c-0.006,0.001 -0.005,0.01 -0.009,0.014c0.003,0.002 0.005,-0.001 0.011,-0c0.001,-0.006 0.004,-0.008 0.004,-0.015c0.003,-0.001 0.006,-0.007 0.007,-0.004c-0,0.003 -0.002,0.007 0,0.01c0.007,-0.002 0.01,-0.009 0.015,-0.01c-0.003,0.006 -0.006,0.012 -0.007,0.019c0.005,0 0.007,-0.004 0.009,0.001c-0.003,0.001 -0.007,0.002 -0.007,0.007c0.005,0.004 0.011,-0 0.015,-0.003c0.003,0.005 0.013,0.002 0.018,0.004c0.006,-0.014 0.017,-0.026 0.014,-0.048c0.007,-0.008 0.012,-0.02 0.015,-0.033c-0.012,0.006 -0.014,0.025 -0.024,0.033c-0.008,-0.018 0.02,-0.021 0.014,-0.041c0.006,-0.002 0.006,-0.011 0.009,-0.018c-0.006,-0.001 -0.009,0.002 -0.012,0.003c-0,-0.004 -0,-0.007 -0.004,-0.007c-0.004,0.022 -0.014,0.037 -0.024,0.053c-0.001,-0.016 0.012,-0.027 0.016,-0.041l-0,-0.015c0.001,-0.008 0.011,-0.026 0.003,-0.03c-0.006,0.007 -0.005,0.023 -0.015,0.026c-0.001,0.008 -0.001,0.016 -0.006,0.019c-0.001,-0.004 -0.001,-0.008 -0.005,-0.008c-0.014,0.025 -0.024,0.052 -0.031,0.083Zm-0.484,-0.11c-0.003,0.005 0.004,-0.004 -0,-0Zm0.522,0.012c-0.001,0 0.001,0.001 0,-0c0.004,-0.004 0.007,-0.007 0.007,-0.014c-0.004,0.002 -0.006,0.007 -0.007,0.014Zm-0.74,-0.009c0.001,0.001 -0,-0.001 0,-0Zm0.766,0.005c0,0.002 -0.001,-0 -0,0Zm-0,0.01c-0,0.001 0,0.003 0.001,0.004c0.002,0.001 0.002,-0.002 0.005,-0.001c0,-0.006 -0.005,-0.006 -0.006,-0.003Zm-0.849,0.017c0.008,0.003 0.012,-0.001 0.022,-0c-0.003,-0.006 -0.018,-0.003 -0.022,-0Zm0.789,-0.001c-0.003,0.003 -0.008,0.01 -0.006,0.014c0.002,-0.004 0.006,-0.007 0.006,-0.014c0.001,-0.001 -0,-0.002 -0,-0Zm-0.715,0.01c-0.002,0.001 -0.007,-0.002 -0.007,0.001c0.001,0.002 0.007,0.003 0.007,-0.001Zm0.772,0.078c0.006,0.001 0.011,-0.005 0.015,-0c-0.003,0.006 -0.017,0 -0.018,0.008c0.018,-0.004 0.056,0.003 0.063,-0.021c-0.013,-0.017 -0.018,-0.042 -0.033,-0.057c-0.007,0.026 -0.021,0.043 -0.027,0.07Zm-0.802,-0.059c0.003,0.006 0.018,0.004 0.02,-0.001c-0.007,0 -0.016,-0.002 -0.02,0.001Zm0.111,0.026c-0,-0.008 -0.009,-0.024 -0.015,-0.025c0.005,0.009 0.009,0.018 0.015,0.025Zm-0.041,-0.01l0.003,-0c0,-0.003 -0.001,-0.005 -0.003,-0.004l-0,0.004Zm0.645,0.006c0.004,0.001 0.006,-0.006 0.002,-0.006c-0.001,0.002 -0.002,0.003 -0.002,0.006Zm-0.005,0.016c0,-0.004 0.007,-0.009 0.002,-0.012c0,0.004 -0.005,0.009 -0.002,0.012Zm-0.844,0.002c0.001,0 -0,-0.001 0,-0Zm0.869,0.005c0.004,0.001 0.003,-0.005 0.005,-0.007c-0.004,0 -0.005,0.003 -0.005,0.007Zm-0.03,0.002c-0.002,0.001 0,0.002 0,0c0.004,-0.001 -0.001,-0.006 0,0Zm-0.9,0.016c-0.001,-0.005 0.005,-0.016 -0.001,-0.018c-0.002,0.005 -0.001,0.015 0.001,0.018Zm0.898,-0.012c0,0.002 -0.001,-0 -0,0Zm0.044,0.011l0.003,-0c-0,-0.002 0.001,-0.002 0.001,-0.005l-0.004,0l0,0.005Zm0.091,0.01c0.012,-0.001 0.024,-0.002 0.027,-0.015c-0.011,0.002 -0.019,0.009 -0.027,0.015Zm-0.962,-0.007c-0.01,0 -0.023,-0.003 -0.029,0.007c0.017,-0.002 0.048,0.001 0.064,-0.007c-0.01,-0.003 -0.023,-0.001 -0.035,-0Zm0.846,0.007c0.003,0.001 0.009,0.002 0.011,-0.003c-0.003,-0.004 -0.011,-0.001 -0.011,0.003Zm0.025,0c0.001,-0.005 -0.001,-0.005 -0.005,-0.004c-0,0.003 0.002,0.004 0.005,0.004Zm0.005,-0.002c0.001,0.001 -0.001,-0 -0,0Zm-0.829,0.002c-0.023,-0.002 -0.055,0 -0.077,0.004c0,0.016 -0.004,0.028 0.001,0.036c0.006,-0 -0.001,-0.007 0.002,-0.009c0.006,0.005 0.006,-0.003 0.006,-0.006c0.015,-0.006 0.035,-0.007 0.049,-0.013c-0.019,0 -0.042,0.003 -0.056,0.004c0.005,-0.01 0.019,-0.011 0.03,-0.012c0.019,-0.001 0.04,0.001 0.057,0c-0,-0.009 -0.007,-0.004 -0.012,-0.004Zm-0.018,0.025c0.002,0.004 0.003,-0.006 -0,-0Zm0.704,0.02c0.011,-0.001 0.021,0.002 0.025,-0.01c-0.011,0.001 -0.02,0.004 -0.025,0.01Zm0.036,-0.007c0.002,0.002 0.007,0.002 0.006,-0.003c-0.003,-0 -0.006,-0 -0.006,0.003Zm0.029,0c0.003,0 0.008,0.001 0.008,-0.003c-0.004,-0 -0.007,-0 -0.008,0.003Zm-0.009,-0.001c-0.001,0 -0.002,-0 -0.002,0.001c0.001,-0.001 0.002,0 0.002,-0.001Zm-0.066,0.005c0.001,0.002 -0.001,-0 -0,0Zm0.508,0.003c0,-0.002 -0.001,-0.003 -0.002,-0.004c-0,0.003 0.001,0.004 0.002,0.004Zm-1.227,0.005l-0,0.003c0.003,0.002 0.003,-0.005 0.001,-0.005c-0,0.001 -0,0.002 -0.001,0.002Zm0.821,0.007c0.016,-0.001 0.033,0.003 0.041,-0.004c-0.013,0.004 -0.031,-0.006 -0.041,0.004Zm-0.832,0.013c0.006,-0 0.013,0 0.014,-0.006c-0.002,-0.003 -0.005,0.003 -0.006,-0.003c0.002,0 0.003,-0.001 0.004,-0.003c-0.003,0.001 -0.001,-0.005 -0.005,-0.004c-0,0.008 -0.004,0.012 -0.007,0.016Zm1.263,0.031c0.001,0.007 0.003,0.013 0.009,0.013c0.004,-0.009 -0.009,-0.019 -0.01,-0.032c-0.006,-0.008 -0.01,-0.018 -0.015,-0.028l-0.004,-0c0.004,0.019 0.013,0.032 0.02,0.047Zm-0.339,-0.038c0.002,-0.001 0.006,0.001 0.005,-0.003c-0.003,-0.001 -0.005,0.001 -0.005,0.003Zm-0.018,0c0,0.001 -0.001,-0.001 -0,0Zm-0.065,0.006c0.001,0.001 -0.001,-0.001 -0,-0Zm-0.84,0.009c-0,-0.003 -0,-0.006 -0.003,-0.006c-0.003,0.002 -0,0.006 0.003,0.006Zm1.247,0.003c0,-0.003 -0.001,-0.006 -0.003,-0.006c0.001,0.002 -0.001,0.007 0.003,0.006Zm-1.24,-0.002c0.002,0.006 0.002,-0.006 0,-0Zm-0.02,0.003c-0.003,0.005 0.004,-0.004 -0,0Zm1.268,0.018c0,-0.009 -0.003,-0.015 -0.008,-0.018c0.001,0.008 0.003,0.015 0.008,0.018Zm-1.269,0.004c0.003,0 0.005,-0.008 0.008,-0.004c-0.003,0.007 -0.012,0.007 -0.011,0.019c0.01,-0.003 0.01,-0.017 0.019,-0.019c-0.001,-0.006 0.003,-0.009 0,-0.012c-0.004,0.001 -0.016,0.006 -0.016,0.016Zm0.021,-0.015c0.001,0.002 -0,-0 0,0Zm-0.101,0.162c0,0.004 0,0.007 -0.001,0.008c0.005,0.002 0.007,-0.001 0.011,-0.001c0.016,-0.051 0.029,-0.11 0.036,-0.167c-0.007,0.001 -0.005,0.016 -0.013,0.013c-0.006,0.04 -0.019,0.078 -0.021,0.116c-0.007,0 -0.003,0.012 -0.01,0.012c0.004,-0.03 0.016,-0.057 0.011,-0.087c-0.014,0.009 -0.012,0.029 -0.018,0.055c-0.004,0.02 -0.013,0.033 -0.009,0.048c-0.002,0.003 -0.003,0.006 -0.004,0.01c0.002,0.001 0.003,0.003 0.003,0.006c0.004,0 0.009,0 0.012,-0.001c0.002,-0.002 0,-0.01 0.003,-0.012Zm0.022,-0.018c0.008,-0.006 0.007,-0.019 0.01,-0.03c0.008,-0.035 0.019,-0.073 0.023,-0.112l-0.004,0c-0.008,0.05 -0.021,0.097 -0.029,0.142Zm-0.068,-0.136c0,0.001 -0.001,-0.001 -0,-0Zm0.144,0.003c0.001,0.005 0.003,-0.006 -0,-0Zm0.008,0.007c0,-0 0,-0.002 0.001,-0.001c0,-0.002 -0,-0.004 -0.002,-0.003c0,0.001 -0,0.004 0.001,0.004Zm-0.049,0.013c0.004,0.002 0.007,-0.008 0.008,-0.015l-0.003,0c0.001,0.009 -0.005,0.008 -0.005,0.015Zm0.041,-0.012c0.001,0.005 0.003,-0.005 -0,0Zm1.255,0c0,0.002 -0.001,-0 -0,0Zm-1.261,0.005l0.002,-0l0,-0.003l-0.002,-0l-0,0.003Zm-0.005,0.005c0.002,-0 0.004,-0 0.003,-0.004l-0.002,0c0,0.002 -0.001,0.002 -0.001,0.004Zm0.465,0.009c0.003,0.003 0.003,-0.006 -0,-0.004l-0,0.004Zm-0.579,0.081c-0.004,0.009 -0.011,0.027 -0.007,0.037c0.01,-0.01 0.008,-0.032 0.012,-0.055c0.004,-0.028 0.02,-0.046 0.012,-0.066c-0.005,0.03 -0.014,0.053 -0.017,0.084Zm-0.135,-0.064c0.001,-0.002 0.002,-0.004 0.001,-0.008l-0.003,0c-0,0.004 -0,0.007 0.002,0.008Zm0.128,0.038c0.004,-0.004 0.007,-0.016 0.005,-0.022c-0.002,0.007 -0.005,0.014 -0.005,0.022Zm1.138,0.006c0.002,-0.003 0.005,-0.006 0.004,-0.014c-0.024,0.016 -0.063,-0.001 -0.083,0.016c0.009,0.005 0.029,-0.001 0.039,0.002c-0.004,0.005 -0.017,0.001 -0.023,0.006c0.017,0.01 0.059,0.008 0.073,-0.009c-0.004,0 -0.005,-0.005 -0.01,-0.001Zm-1.14,0.01c-0.001,-0.005 0.005,-0.01 0.001,-0.013c-0.001,0.001 -0.003,0.01 -0.001,0.013Zm0.689,-0.007c-0.003,-0.003 -0.01,-0.007 -0.015,-0.003c0.004,0 0.012,0.01 0.015,0.003Zm0.06,-0c-0.001,0.005 0.008,0.007 0.009,0.004c-0.003,-0.002 -0.005,-0.009 -0.009,-0.004Zm-0.729,0.019c0,-0.006 0.007,-0.013 0.003,-0.019c-0.001,0.005 -0.006,0.013 -0.003,0.019Zm-0.052,-0.015c0.001,0.001 -0,-0 0,0Zm0.793,0.005c0.004,-0 0.006,0.009 0.011,0.004c-0.004,-0.002 -0.009,-0.011 -0.011,-0.004Zm-0.769,0.029c0.001,-0.008 0.01,-0.022 0.005,-0.026c-0.002,0.007 -0.008,0.017 -0.005,0.026Zm0.288,-0.022c0.001,0.001 -0,-0.001 0,-0Zm0.801,0.006c0.012,0.001 0.036,0.005 0.042,-0.004c-0.013,0 -0.03,-0.005 -0.042,0.004Zm-0.856,-0.003c-0.001,0.003 0.006,0.004 0.011,0.003c0.003,0.01 0.024,-0.002 0.044,0.001c-0.013,-0.008 -0.043,-0.003 -0.055,-0.004Zm-0.208,0.003c0.001,0.001 -0,-0.001 0,-0Zm0.274,-0c0.006,0.004 0.006,-0.006 -0,-0Zm0.026,-0c-0.002,-0 -0.004,-0 -0.004,0.001c0.001,0 0.003,0 0.004,-0.001Zm0.078,-0c-0.002,-0 -0.004,-0 -0.004,0.001c0.001,0 0.003,0 0.004,-0.001Zm-0.38,0.016c-0,-0.004 0.005,-0.009 0.001,-0.014c0,0.005 -0.005,0.01 -0.001,0.014Zm1.18,-0.011l0.003,0l-0,-0.003l-0.003,0l0,0.003Zm-0.812,0.002c0,0.001 -0.001,-0 -0,0Zm1.026,0.003c-0,0.022 0.018,0.036 0.024,0.055c0.003,0.008 -0,0.015 0.007,0.018c0.003,-0.011 -0.006,-0.021 -0.006,-0.033c-0.009,-0.005 -0.012,-0.019 -0.009,-0.034c-0.006,-0.001 -0.012,-0.008 -0.016,-0.006Zm-0.496,0.017c0.001,-0.006 0.005,-0.007 0.004,-0.014c-0.004,0.002 -0.007,0.002 -0.01,-0c-0.02,0.043 -0.042,0.078 -0.063,0.116c0.012,0.001 0.028,-0.018 0.036,-0.029c0.018,-0.024 0.038,-0.057 0.05,-0.082c-0.005,0.001 -0.005,-0.003 -0.009,-0.003c-0.003,0.003 -0.003,0.01 -0.008,0.012Zm-0.564,-0.01c0.003,0.005 0.014,0.006 0.015,0c-0.004,-0.001 -0.011,-0.002 -0.015,0Zm-0.052,0.002c0.001,0.001 -0.001,-0.001 -0,-0Zm-0.24,0.005c0.001,0.007 0.001,-0.005 -0,0Zm0.306,0c-0.001,0 -0.003,0 -0.003,0.002c0.001,-0 0.003,0 0.003,-0.002Zm0.028,0.003c0.003,-0.003 -0.004,-0.003 -0.004,-0.001c0,0 0.004,0.001 0.004,0.001Zm-0.031,0.005c0.001,0.002 0.003,0 0.005,-0.001c-0.002,-0.002 -0.005,-0.002 -0.005,0.001Zm-0.009,0.005c-0.001,0 -0.002,-0 -0.002,0.001c0.001,-0.001 0.002,-0 0.002,-0.001Zm-0.353,0.002c0.001,0.001 -0,-0.001 0,0Zm-0.013,0.002c-0.003,0.005 0.004,-0.004 -0,-0Zm0.015,0.012c0,-0.004 -0,-0.007 -0.002,-0.008c-0.001,0.002 -0.003,0.01 0.002,0.008Zm0.396,-0.007c0.001,0.005 0.003,-0.005 -0,0Zm-0.283,0.007c0.019,-0.002 0.041,-0.001 0.057,-0.007c-0.021,0.001 -0.041,0.001 -0.057,0.007Zm0.06,-0.005c0.001,0.001 -0,-0 0,0Zm0.145,0.009c-0.041,-0.004 -0.086,-0.01 -0.127,-0.009c0.043,0.005 0.084,0.009 0.127,0.009Zm-0.313,-0.001c0.004,0.002 0.004,-0.006 0.001,-0.006c0,0.001 -0.001,0.003 -0.001,0.006Zm0.107,-0.003c-0.007,-0.004 -0.006,0.004 0,-0Zm-0.134,0.017c0.005,0 0.006,-0.014 0.001,-0.014c0.001,0.006 -0.002,0.008 -0.001,0.014Zm0.02,-0.011c0.002,0.005 0.003,-0.006 0,-0Zm0.326,-0.002c-0.001,0 -0.003,-0 -0.003,0.001c0.001,0 0.003,0.001 0.003,-0.001Zm0.009,0.002c-0.007,-0.002 -0.002,0.004 0,-0Zm0.018,0.004c0.001,0.001 -0,-0.001 0,-0Zm-0.373,0.015c0.002,-0 0.003,-0.002 0.003,-0.003c-0.002,-0 -0.004,-0 -0.003,0.003Zm1.42,0.003c-0.007,0.014 0.013,0.02 0.011,0.038c0.01,0.003 0.011,0.016 0.019,0.02c-0.01,-0.02 -0.01,-0.051 -0.03,-0.058Zm-1.323,0.022c-0.004,0.005 -0.013,0.001 -0.015,0.008c0.033,-0.003 0.074,-0.014 0.114,-0.014c0.018,-0 0.04,0.008 0.055,-0.002c-0.005,0.001 -0.013,-0 -0.007,-0.004c-0.078,-0.009 -0.168,-0.001 -0.224,0.037c0.028,-0.001 0.046,-0.025 0.077,-0.025Zm0.306,-0.015c0.001,0.002 0.002,-0.001 0,0c-0,-0.002 -0.001,0 0,0Zm0.003,0.007l0.002,0c0,-0.001 0.002,-0.001 0.001,-0.004l-0.003,0l-0,0.004Zm-0.14,-0.003c-0.003,0.002 -0.01,-0.002 -0.012,0.002c0.005,0 0.008,0.001 0.012,-0.002Zm0.155,0.002c-0,-0.001 -0.005,-0.004 -0.006,-0c0.002,-0.001 0.005,0.004 0.006,-0Zm1.004,0.023c-0.002,-0.011 -0.006,-0.02 -0.013,-0.025c0.003,0.011 0.006,0.02 0.013,0.025Zm-1.135,-0.023c-0.001,-0 -0.003,-0 -0.003,0.001c0.001,-0 0.003,0 0.003,-0.001Zm0.007,0.001c-0.001,0.001 -0.002,0 -0.002,0.002c0.001,-0.001 0.002,-0 0.002,-0.002Zm0.007,0c-0.001,0.001 -0.006,-0.001 -0.006,0.002c0.002,-0.001 0.007,0.001 0.006,-0.002Zm1.104,0.012c0.001,-0.006 -0.005,-0.005 -0.003,-0.012l-0.004,0c0,0.007 0.003,0.01 0.007,0.012Zm-1.146,-0.007c0.006,0.001 0.022,0.004 0.024,-0.003c-0.007,0.001 -0.02,-0.004 -0.024,0.003Zm0.033,-0c-0.003,-0.001 -0.002,-0.005 -0.006,-0.003c-0.002,0.004 0.005,0.006 0.006,0.003Zm0.132,-0c-0.003,-0.002 -0.014,-0.003 -0.018,-0c0.005,0 0.014,0.003 0.018,-0Zm-0.031,0.007c-0.001,0.009 0.014,0.008 0.011,-0.001c-0.005,-0.001 -0.006,0.002 -0.011,0.001c0.001,-0.002 0.003,-0.003 0.006,-0.003c0,-0.008 -0.01,-0.003 -0.011,0.001c0.003,-0 0.004,0.001 0.005,0.002Zm-0.072,-0.004c0,0 -0.001,-0.001 -0,-0Zm1.101,0.051c-0.006,-0.02 -0.018,-0.032 -0.025,-0.051l-0.003,-0c0.007,0.019 0.014,0.039 0.028,0.051Zm-1.211,-0.046c0.017,0 0.031,0.003 0.048,0.001c-0.014,-0.006 -0.033,-0.006 -0.048,-0.001Zm1.177,0.011c0.002,-0.008 -0.003,-0.008 -0.006,-0.011c0.002,0.004 0.002,0.011 0.006,0.011Zm-0.967,-0.009c-0.002,0 -0.004,0 -0.004,0.001c0.002,0 0.004,0 0.004,-0.001Zm0.995,0.016c-0.001,0.009 0.005,0.009 0.009,0.012c-0.001,0.004 0.001,0.005 0.001,0.008c0.003,0 0.003,0.003 0.006,0c-0.003,-0.008 -0.009,-0.015 -0.01,-0.026c-0,0.003 -0.005,0 -0.006,0.003c-0.002,-0.004 -0.004,-0.017 -0.009,-0.012c0.002,0.006 0.006,0.015 0.009,0.015Zm-1.212,-0.004c0.008,-0.006 0.021,-0.005 0.033,-0.006c-0.006,-0.009 -0.032,-0.007 -0.033,0.006Zm-0.035,-0.006c0.004,0.008 0.018,0.007 0.022,-0c-0.006,-0.001 -0.016,-0 -0.022,-0Zm0.23,0.013c0.004,0.001 0.006,0.005 0.011,0.004c0.003,-0.005 0.001,-0.006 0.004,-0.011c-0.006,-0.006 -0.015,-0.005 -0.015,0.007Zm0.971,-0.009l0.003,-0l-0,-0.003l-0.003,-0l0,0.003Zm-1.327,0.112c-0.001,0 0.001,0.002 0,-0c0.009,-0.004 0.015,-0.011 0.022,-0.018c0.007,-0.001 0.007,-0.01 0.017,-0.009c-0.002,0.005 -0.003,0.009 -0,0.014c0.03,-0.018 0.062,-0.042 0.103,-0.047c0.019,-0.003 0.034,-0.003 0.05,-0.011c-0.003,0 -0.005,-0 -0.006,-0.003c0.015,-0.003 0.035,-0.005 0.053,-0.006c0.009,-0 0.019,0.004 0.024,-0.004c-0.022,-0.011 -0.05,0.005 -0.072,-0c0.002,-0.004 0.005,-0.007 0.005,-0.009c0.004,-0 0.011,0.002 0.011,-0.003c-0.002,0 -0.003,-0.001 -0.003,-0.003c0.017,-0.006 0.032,0.002 0.047,-0.006c-0.008,0.001 -0.012,-0.002 -0.019,-0.001c0.001,-0.004 -0.002,-0.004 -0.001,-0.007l-0.027,-0c-0.001,0.006 0.004,0.005 0.005,0.007c-0.003,0.001 -0.01,-0.003 -0.009,0.003c0,0.002 0.003,0.001 0.003,0.003c-0.006,0.001 -0.016,-0.002 -0.015,0.006c0.001,0.003 0.006,-0 0.007,0.003c-0.021,0.001 -0.037,0.014 -0.057,0.012c0.008,-0.001 0.014,-0.003 0.018,-0.011c-0.01,0.003 -0.021,0.003 -0.023,0.015c0.004,0 0.006,0.001 0.007,0.003c-0.054,0.001 -0.095,0.019 -0.132,0.041c0.001,-0.002 0.002,-0.003 0.003,-0.006c-0.013,0.007 -0.023,0.017 -0.031,0.029c0.003,0.011 -0.004,0.012 -0.005,0.021c0.015,-0 0.018,-0.015 0.03,-0.019c-0.001,0.003 -0.004,0.003 -0.005,0.006Zm1.369,-0.075c-0.005,-0.016 -0.01,-0.031 -0.021,-0.038c0.001,0.014 0.01,0.031 0.021,0.038Zm-1.05,-0.031c-0.003,-0 -0.002,-0.004 -0.005,-0.003c-0.001,0.004 0.004,0.007 0.005,0.003Zm-0.13,-0.001c-0.001,0 -0.003,-0 -0.003,0.001c0.001,-0.001 0.003,-0 0.003,-0.001Zm0.11,0.002l0.003,0c0,-0.002 -0.001,-0.003 -0.003,-0.003l-0,0.003Zm0.042,0.002c-0.002,0.007 0.011,0.008 0.013,0.003c-0.004,-0.001 -0.004,-0.007 -0.009,-0.007c0.002,0.005 -0.001,0.004 -0.004,0.004Zm-0.229,-0.003c-0.002,0.001 -0.008,-0.002 -0.008,0.001c0.002,-0 0.008,0.002 0.008,-0.001Zm0.156,0.004c0.003,-0 0.007,0.002 0.006,-0.003l-0.006,0l0,0.003Zm0.056,0.002l-0,-0.004l-0.004,-0c-0,0.003 0.001,0.004 0.004,0.004Zm0.057,-0.003c0.001,0.001 -0,-0.001 0,0Zm0.912,0c-0,0.001 0,0.001 0.001,0.001c0.002,0.006 0.008,0.018 0.013,0.011c-0.004,-0.005 -0.009,-0.008 -0.013,-0.011c0,-0.001 -0.001,-0.001 -0.001,-0.001c-0.001,-0.002 -0.002,0 -0,0Zm-1.147,0.009c-0.013,-0.002 -0.008,0.004 -0,-0c0.013,-0.002 0.029,0.001 0.037,-0.007c-0.011,-0 -0.033,-0.005 -0.037,0.007Zm0.162,-0.006c-0.003,0.005 0.004,-0.004 0,0Zm-0.006,0.004c0.001,0.001 -0,-0 0,0Zm-0.052,0.003c-0.002,-0 -0.006,-0.005 -0.008,-0.001c0.003,0 0.006,0.008 0.008,0.001Zm0.04,-0.003c-0.001,0.001 -0.002,0 -0.002,0.002c0.001,-0 0.002,-0 0.002,-0.002Zm-0.018,0.006c0.005,-0.001 0.007,-0.001 0.014,-0.001c-0.001,-0.006 -0.013,-0.003 -0.014,0.001Zm0.109,-0.003c0.001,0.001 -0,-0 0,0Zm-0.225,0.005l0.004,-0c-0,-0.003 -0.001,-0.004 -0.004,-0.003l0,0.003Zm1.241,0.005c0.003,-0.002 0.003,-0.008 -0.002,-0.007c-0.001,0.004 -0.002,0.007 0.002,0.007Zm-1.383,-0.001c0.003,-0 0.005,-0.001 0.007,-0.003c-0.003,-0 -0.007,-0.001 -0.007,0.003Zm0.265,-0l0.016,-0c-0.002,-0.007 -0.013,-0.001 -0.016,-0Zm0.022,-0.001c0.001,0.005 0.001,-0.006 -0,-0Zm1.042,0.007l0,-0.007c-0.001,-0 -0.002,-0.001 -0.003,-0.001c-0.003,0.002 -0.001,0.008 0.003,0.008Zm-0.043,-0.005c0.001,0.001 -0.001,-0 -0,0Zm-1.307,0.008c0.008,-0.001 0.014,-0.003 0.018,-0.008c-0.008,-0 -0.013,0.003 -0.018,0.008Zm0.368,-0.005c0.006,0.001 0.02,0.005 0.023,-0.003c-0.009,0.001 -0.018,-0 -0.023,0.003Zm0.941,0.005c0.004,0.002 0.004,-0.007 0,-0.005l0,0.005Zm0.081,-0.003c0,0.004 0.002,0.007 0.006,0.007c0.001,-0.001 0.001,-0.003 0.001,-0.007c-0.003,-0.001 -0.005,-0.003 -0.007,0Zm-1.349,0.003c-0.004,-0 -0.009,-0.001 -0.009,0.004c0.004,0 0.007,-0.001 0.009,-0.004c0.002,-0.001 -0,-0.002 0,-0Zm0.331,0.003c0.002,-0 0.004,-0 0.003,-0.003l-0.002,-0c-0,0.001 -0.001,0.001 -0.001,0.003Zm0.984,0.003c0.001,-0.004 -0,-0.006 -0.003,-0.006c-0,0.003 -0,0.006 0.003,0.006Zm-1.344,-0.003c0.001,0.001 -0,-0.001 0,-0Zm1.378,0.038c-0.006,-0.001 -0.013,-0.007 -0.017,-0.006c0.02,0.015 0.033,0.038 0.047,0.06c0.005,-0.027 -0.02,-0.031 -0.024,-0.051c0.001,0 0.002,0.001 0.005,0.001c0.001,-0.02 -0.013,-0.032 -0.022,-0.044c-0.002,0.004 0.006,0.014 0.003,0.019c-0.008,-0.004 -0.007,-0.018 -0.016,-0.019c0.002,0.021 0.017,0.025 0.024,0.04Zm-1.389,-0.035c0.004,-0 0.007,-0.001 0.009,-0.003c-0.004,0 -0.008,-0.002 -0.009,0.003Zm0.263,-0.003c-0.007,-0.002 -0.002,0.005 0,-0Zm0.042,0.003c0,0.001 -0.001,-0.001 -0,-0Zm-0.285,0.003c0.002,-0 0.004,-0.001 0.005,-0.003c-0.003,-0.001 -0.005,0 -0.005,0.003Zm-0.041,0.025c0.013,-0.006 0.026,-0.012 0.035,-0.023c-0.014,0.004 -0.032,0.004 -0.035,0.023Zm1.339,-0.003c-0.001,-0.009 -0.004,-0.015 -0.011,-0.016c0.001,0.008 0.005,0.013 0.011,0.016Zm-1.34,-0.011c0.003,-0 0.005,-0.001 0.006,-0.004c-0.004,-0.001 -0.007,0 -0.006,0.004Zm1.345,0.002c-0.001,0.009 0.005,0.001 -0,-0Zm-1.339,0.02c0.004,-0.005 0.012,-0.005 0.014,-0.013c-0.004,0.004 -0.017,0.005 -0.014,0.013Zm-0.027,-0.004c0.004,-0.002 0.008,-0.002 0.011,-0.006c-0.003,-0.002 -0.009,0.002 -0.011,0.006Zm1.37,0.01c-0,-0.002 0.001,-0.007 -0.002,-0.006c0,0.003 0.001,0.005 0.002,0.006Zm0.018,0.016c0.003,-0.005 -0.004,-0.009 -0.005,-0.016c-0.003,0.001 -0.004,0 -0.006,-0.001c0.001,0.009 0.007,0.012 0.011,0.017Zm-0.008,0.002c0.002,-0.008 -0.004,-0.014 -0.009,-0.016c0.001,0.007 0.003,0.014 0.009,0.016Zm-1.399,-0.003c0.001,0.001 -0,-0 0,0Zm0.012,0.015c-0.004,-0.005 -0.004,0.005 0,-0Z" style="fill:#0b0000;"/><path d="M1.848,0.168c0,-0.002 0.002,-0.002 0.003,-0.002c-0.001,0.002 -0.002,0.002 -0.003,0.002Z" style="fill:#0b0000;"/><path d="M0.187,0.181c0.004,-0.004 -0.003,0.005 -0,0Z" style="fill:#0b0000;"/><rect x="0.162" y="0.2" width="0.003" height="0.003" style="fill:#0b0000;"/><path d="M1.262,0.204c-0,-0.001 0.001,-0.001 0.002,-0.001c0,0.001 -0.001,0.001 -0.002,0.001Z" style="fill:#0b0000;"/><path d="M0.14,0.238c0,-0.001 0.002,-0.001 0.003,-0.001c-0,0.001 -0.002,0.001 -0.003,0.001Z" style="fill:#0b0000;"/><path d="M1.237,0.237c-0,0.003 -0.004,0.003 -0.007,0.003c0.001,-0.003 0.003,-0.003 0.007,-0.003Z" style="fill:#0b0000;"/><path d="M1.865,0.245c-0,-0.002 0.002,-0.001 0.003,-0.001c0,0.002 -0.002,0.001 -0.003,0.001Z" style="fill:#0b0000;"/><path d="M1.876,0.245c-0.001,0.002 -0.002,0.003 -0.004,0.003c-0.001,-0.003 0.002,-0.002 0.004,-0.003Z" style="fill:#0b0000;"/><path d="M1.878,0.247c0.001,0 0.001,0.001 0.003,0.001c-0.001,0.004 -0.006,0.002 -0.003,-0.001Z" style="fill:#0b0000;"/><path d="M1.539,0.25c0.003,0.004 -0.001,0.012 -0.005,0.012c-0.002,-0.005 0.005,-0.007 0.005,-0.012Z" style="fill:#0b0000;"/><path d="M1.866,0.303c0.002,-0.004 0.006,0.001 0.005,0.004c-0.003,-0.001 -0.003,-0.004 -0.005,-0.004Z" style="fill:#0b0000;"/><path d="M0.452,0.329c0.001,-0.006 0.004,-0.01 0.006,-0.016c0.003,0.004 -0.004,0.011 -0.005,0.016l-0.001,0Z" style="fill:#0b0000;"/><path d="M0.138,0.317c0.003,0.002 0.001,0.009 0.003,0.011c-0.003,0.004 -0.004,-0.006 -0.003,-0.011Z" style="fill:#0b0000;"/><path d="M0.434,0.326c-0,-0.001 0.001,0.001 0,0Z" style="fill:#0b0000;"/><rect x="1.245" y="0.326" width="0.003" height="0.003" style="fill:#0b0000;"/><path d="M1.26,0.326c-0.001,0.002 -0.003,0.003 -0.006,0.003c-0,-0.003 0.003,-0.003 0.006,-0.003Z" style="fill:#0b0000;"/><path d="M1.278,0.326c0.008,0.001 0.012,0.005 0.015,0.012c-0.005,-0.004 -0.011,-0.006 -0.015,-0.012Z" style="fill:#0b0000;"/><path d="M0.433,0.329c-0,-0.002 0.002,-0.001 -0,0Z" style="fill:#0b0000;"/><path d="M0.452,0.329c-0,0.001 0,0.003 -0.001,0.003c0,-0.001 -0,-0.003 0.001,-0.003Z" style="fill:#0b0000;"/><path d="M0.451,0.332c-0.001,0.001 -0,0.003 -0.001,0.003c0,-0.001 -0,-0.003 0.001,-0.003Z" style="fill:#0b0000;"/><path d="M0.45,0.335c-0.001,0.001 -0,0.003 -0.001,0.003c-0,-0.001 -0,-0.003 0.001,-0.003Z" style="fill:#0b0000;"/><path d="M0.447,0.339c0,-0 0,-0.001 0.001,-0.001c0,0.001 0,0.001 -0.001,0.001Z" style="fill:#0b0000;"/><path d="M0.447,0.339c0.001,0.007 -0.003,0 0,0Z" style="fill:#0b0000;"/><path d="M0.444,0.347c-0,-0.002 0.001,-0.001 -0,-0Z" style="fill:#0b0000;"/><path d="M0.444,0.347c-0,0.002 -0.002,0 -0,-0Z" style="fill:#0b0000;"/><path d="M1.278,0.353c-0.002,-0 -0.001,-0.003 -0,-0Z" style="fill:#0b0000;"/><path d="M1.278,0.353c0,-0 0.001,-0 0.001,0.001c-0.001,0 -0.002,0 -0.001,-0.001Z" style="fill:#0b0000;"/><path d="M0.126,0.385c0.003,0.002 -0.003,0.005 -0.001,0.01c-0.003,0.001 -0.003,-0.001 -0.005,-0.001c0,-0.005 0.005,-0.004 0.006,-0.009Z" style="fill:#0b0000;"/><path d="M0.131,0.401c-0.003,0 -0.005,-0.002 -0.005,-0.006c0.002,0.001 0.003,0.004 0.005,0.006Z" style="fill:#0b0000;"/><path d="M0.114,0.398c-0.001,-0 0.001,0.001 -0,0Z" style="fill:#0b0000;"/><path d="M0.131,0.401c0.008,-0 0.001,0.008 -0,0Z" style="fill:#0b0000;"/><path d="M1.916,0.423c0.005,0.003 -0.004,0.013 0.004,0.012c-0.004,0.007 -0.003,0.019 -0.009,0.025c-0.001,-0.017 0.001,-0.026 0.005,-0.037Z" style="fill:#0b0000;"/><path d="M0.756,0.441c0,-0.001 0.002,-0.001 0.003,-0.001c-0,0.001 -0.002,0 -0.003,0.001Z" style="fill:#0b0000;"/><path d="M1.913,0.488c-0.001,-0.019 0.01,-0.024 0.013,-0.038c0.005,0.015 -0.015,0.019 -0.009,0.036c-0.002,-0 -0.002,0.002 -0.004,0.002Z" style="fill:#0b0000;"/><path d="M1.946,0.473c0.002,-0.006 0.002,0.006 0,-0Z" style="fill:#0b0000;"/><path d="M1.913,0.488c0.001,0.006 -0.004,0 -0,-0Z" style="fill:#0b0000;"/><path d="M1.926,0.489c0.004,0.002 -0.002,0.005 0.001,0.008c0.004,-0.002 0.008,-0.002 0.011,-0.003c0,0.008 -0.013,0.006 -0.018,0.004c0,-0.005 0.005,-0.004 0.006,-0.009Z" style="fill:#0b0000;"/><path d="M1.882,0.494c-0.001,-0.001 0,0.001 -0,-0Z" style="fill:#0b0000;"/><path d="M0.465,0.51c-0,-0.001 0.001,0.001 0,-0Z" style="fill:#0b0000;"/><path d="M0.669,0.517c-0.003,0.005 -0.008,-0.001 -0,-0Z" style="fill:#0b0000;"/><path d="M1.057,0.566c-0,-0.001 0.001,0 0,-0Z" style="fill:#0b0000;"/><path d="M1.023,0.574c-0.001,-0 0,0.002 -0,0Z" style="fill:#0b0000;"/><path d="M1.036,0.617c0.001,-0.006 0.001,0.006 -0,0Z" style="fill:#0b0000;"/><path d="M2.36,0.648c0,-0.002 0.002,-0.001 0.004,-0.001c-0,0.001 -0.002,0.001 -0.004,0.001Z" style="fill:#0b0000;"/><path d="M0.983,0.671c0.001,-0.002 0.003,-0.001 0.003,0c-0.001,0.002 -0.002,0 -0.003,0Z" style="fill:#0b0000;"/><path d="M0.989,0.684c0.002,-0.001 0.002,-0.006 0.005,-0.006c0,0.005 -0.001,0.007 -0.005,0.006Z" style="fill:#0b0000;"/><path d="M0.989,0.684c-0,0.004 -0.003,0.004 -0.003,0.007c-0.006,-0.004 -0.008,0.001 -0.011,0.004c-0.003,-0.001 -0.005,-0.003 -0.005,-0.006c0.005,-0 0.007,0 0.013,-0.003c-0,-0.003 -0.003,-0.002 -0.003,-0.005c0.003,0.001 0.003,-0.002 0.006,-0.001c0.001,0.003 0.002,0.004 0.003,0.004Z" style="fill:#0b0000;"/><path d="M0.035,0.688c0.005,0.009 0.003,0.031 -0.007,0.032c-0,0.005 0.004,0.007 0.003,0.013c-0.002,0.001 -0.002,-0.001 -0.003,-0.001c-0.002,0 -0.001,0.003 -0.001,0.004c-0.003,-0.006 -0.005,-0.014 -0.006,-0.022c0.004,-0.004 0.008,-0.018 0.014,-0.026Z" style="fill:#0b0000;"/><path d="M1.968,0.695c0,-0.001 0.002,-0.001 0.003,-0.001c-0.001,0.001 -0.002,0 -0.003,0.001Z" style="fill:#0b0000;"/><path d="M2.029,0.695c-0,0.002 -0.006,0.005 -0.007,0.001c0.004,0.001 0.004,-0.002 0.007,-0.001Z" style="fill:#0b0000;"/><path d="M1.05,0.698c0,-0.001 0.002,-0.001 0.003,-0.001c-0,0.001 -0.002,0 -0.003,0.001Z" style="fill:#0b0000;"/><path d="M0.989,0.708c0.001,-0.005 0.006,0.002 0,-0Z" style="fill:#0b0000;"/><path d="M0.989,0.708c-0.001,0.002 -0.004,0.003 -0.007,0.004c0.001,-0.003 0.003,-0.005 0.007,-0.004Z" style="fill:#0b0000;"/><path d="M1.152,0.71c-0.001,0.003 -0.007,0 -0.011,0.001c-0,-0.006 0.01,-0.003 0.011,-0.001Z" style="fill:#0b0000;"/><path d="M1.251,0.711c-0,-0.001 0.001,0.001 0,-0Z" style="fill:#0b0000;"/><rect x="0.015" y="0.711" width="0.003" height="0.003" style="fill:#0b0000;"/><path d="M2.382,0.714c-0.001,-0.006 0.004,-0 0,-0Z" style="fill:#0b0000;"/><path d="M2.382,0.714c0,0.002 -0.002,0 0,-0Z" style="fill:#0b0000;"/><path d="M0.038,0.72c0.002,-0.001 0.003,0.001 0.003,0.003c-0.001,0 -0.001,0.001 -0.001,0.001c-0.002,-0 -0.002,-0.003 -0.002,-0.004Z" style="fill:#0b0000;"/><path d="M0.014,0.729c0,0.003 -0.004,0 -0.006,0.001c0,-0.004 0.005,-0.003 0.006,-0.001Z" style="fill:#0b0000;"/><path d="M1.951,0.74c0,0.002 -0.001,0.001 0,0Z" style="fill:#0b0000;"/><path d="M1.945,0.743c0,-0.002 0.002,-0.001 0.004,-0.001c-0,0.001 -0.002,0.001 -0.004,0.001Z" style="fill:#0b0000;"/><path d="M1.956,0.743c0.002,-0.005 0.003,0.006 0,0Z" style="fill:#0b0000;"/><path d="M1.802,0.747c0.001,0.002 -0.001,0.002 0,0Z" style="fill:#0b0000;"/><path d="M2.09,0.757c0,-0.002 0.002,-0.002 0.004,-0.002c-0,0.002 -0.002,0.001 -0.004,0.002Z" style="fill:#0b0000;"/><path d="M0.925,0.758c0,-0.002 0.002,-0.001 0,-0Z" style="fill:#0b0000;"/><path d="M0.026,0.759c0,0.007 -0.005,0.001 0,0Z" style="fill:#0b0000;"/><path d="M1.79,0.762c0.003,0.003 -0.001,0.011 -0.005,0.011c0.001,-0.004 0.003,-0.008 0.005,-0.011Z" style="fill:#0b0000;"/><rect x="2.095" y="0.764" width="0.003" height="0.003" style="fill:#0b0000;"/><path d="M1.302,0.792c-0.001,0.001 -0.002,0.003 -0.004,0.003c0,-0.002 0.001,-0.003 0.004,-0.003Z" style="fill:#0b0000;"/><path d="M1.291,0.798c0,-0 0.001,-0 0.001,0.001c-0.001,-0 -0.001,-0 -0.001,-0.001Z" style="fill:#0b0000;"/><path d="M0.007,0.803c-0,-0.001 0.001,-0.001 0.002,-0.001c0,0.001 -0.001,0.001 -0.002,0.001Z" style="fill:#0b0000;"/><rect x="2.104" y="0.809" width="0.003" height="0.003" style="fill:#0b0000;"/><path d="M1.015,0.814c-0.004,0.002 -0.01,0.003 -0.017,0.003c0.004,-0.004 0.013,-0.007 0.017,-0.003Z" style="fill:#0b0000;"/><path d="M0.97,0.821c0.001,-0.001 0.007,-0.005 0.008,-0.001c-0.003,0 -0.004,0.002 -0.008,0.001Z" style="fill:#0b0000;"/><path d="M0.964,0.823c-0,-0.003 0.004,-0.001 0.006,-0.002c0,0.003 -0.004,0 -0.006,0.002Z" style="fill:#0b0000;"/><path d="M0.778,0.921c0.002,-0.005 0.003,0.006 -0,-0Z" style="fill:#0b0000;"/><path d="M0.79,0.925c0,0.002 -0,0.004 0.001,0.004c-0.003,0.004 -0.006,-0.003 -0.006,-0.007c0.002,0 0.002,0.004 0.005,0.003Z" style="fill:#0b0000;"/><path d="M0.935,0.934c-0.008,0.001 0.001,-0.01 0,0Z" style="fill:#0b0000;"/><path d="M1.273,0.99c-0.003,0.003 -0,0.007 0.003,0.007c0.003,-0.002 0.004,-0.011 -0.002,-0.009c0.001,-0.009 0.01,-0.011 0.017,-0.014c-0.005,0.005 -0,0.008 0.003,0.007c-0.003,0.004 -0.007,0.006 -0.013,0.006c0,0.012 0.009,0.002 0.013,0.001c0.001,0.009 0.005,0.025 -0.005,0.031l0,0.018c-0.001,0.003 -0.005,0.003 -0.006,0.007c0.009,0.022 0.003,0.065 -0.013,0.075c-0.004,-0 -0.004,-0.006 -0.008,-0.008c-0.028,0.006 -0.052,0.015 -0.076,0.024c-0.003,0 -0.003,-0.002 -0.004,-0.003c-0.027,0 -0.057,0.025 -0.08,0.011c-0.014,0.003 -0.028,0.006 -0.04,0.011c-0.004,0 -0.002,-0.006 -0.006,-0.006c-0.006,0.001 -0.017,0.011 -0.024,0.003c0.005,-0.001 0.013,0.003 0.012,-0.005c-0.013,-0.001 -0.027,-0.002 -0.035,0c-0.004,-0.002 -0.005,-0.009 -0.012,-0.008c0.003,-0.003 0.01,-0 0.011,-0.005c-0.01,-0.004 -0.02,0.005 -0.031,0.005c-0.005,0 0.001,-0.004 -0.002,-0.006c-0.02,-0.001 -0.045,0.002 -0.061,-0.003c-0.004,0 -0.006,0.003 -0.007,0.006c-0.005,-0.003 -0.01,-0.006 -0.017,-0.005c-0,-0.001 0.002,-0.001 0.002,-0.003c-0.007,-0.008 -0.012,0.008 -0.023,0.002c0.004,-0.015 0.023,-0.005 0.031,-0.015c-0.01,-0.002 -0.024,0.004 -0.035,-0.001c0.015,-0.005 0.033,-0.011 0.045,0.001c0.004,-0.001 -0,-0.004 0.001,-0.009c0.013,-0.002 0.033,-0.001 0.043,-0.01c0.021,0.001 0.042,-0.009 0.062,-0.018c-0.004,-0.012 -0.019,0.006 -0.021,-0.006c-0.007,0.011 -0.026,0.006 -0.034,0.015c0.005,0.002 0.015,-0.001 0.021,-0.001c-0.005,0.006 -0.015,0.003 -0.022,0.006l0,-0.005c-0.009,0.005 -0.017,0.004 -0.03,0.002c0.014,-0.008 0.036,-0.004 0.048,-0.014c-0.01,-0.002 -0.023,0.008 -0.031,-0.004l0,-0.006c0.012,-0.005 0.023,-0.009 0.037,-0.011c-0.013,-0.006 0.009,-0.005 0.015,-0.01c-0.018,-0.003 -0.041,0.012 -0.063,0.013c0.001,-0.006 0.009,-0.002 0.012,-0.006c-0.005,-0.005 -0.012,0.005 -0.018,0c0.002,-0.008 0.019,-0.003 0.016,-0.013c0.003,-0.001 0.006,-0.002 0.011,-0.001c-0.001,0.001 -0.002,0.002 -0.003,0.004c0.009,0.002 0.007,-0.008 0.015,-0.007c-0.003,0.006 0.007,0 0.011,0.001c0.001,-0.005 -0.003,-0.003 -0.005,-0.003c0.021,-0.013 0.045,-0.02 0.069,-0.024c0.004,-0.001 0.005,-0.004 0.007,-0.007c0.049,-0.014 0.093,-0.035 0.143,-0.048c0.014,0.01 0.033,-0.015 0.049,-0.001l-0,0.007c0.006,0.005 0.01,0.005 0.02,0.004c-0.001,0.007 -0.009,0.004 -0.013,0.008c-0.001,0.003 0.008,0 0.004,0.003c-0.003,0.003 -0.009,0.004 -0.013,0.008c0.004,0.004 0.006,0.013 0.002,0.019c0.012,-0.007 0.016,0.003 0.027,-0.004c-0,-0.003 -0,-0.005 -0.003,-0.004c0.001,-0.002 0.003,-0.002 0.004,-0.004c0,0.002 0.001,0.002 0.002,0.002Zm-0.043,-0.011c0.008,-0 0.014,-0.002 0.019,-0.007c-0.006,-0.002 -0.016,0.002 -0.019,0.007Zm-0.031,0.009c-0.007,0.004 -0.016,0.006 -0.017,0.012c0.013,-0.008 0.034,-0.008 0.044,-0.021c-0.011,0.003 -0.018,0.006 -0.027,0.009Zm-0.096,0.004c0.004,0.001 0.012,-0.002 0.013,-0.008c-0.006,-0 -0.01,0.003 -0.013,0.008Zm0.19,0.009c0.001,-0.003 -0,-0.006 -0.003,-0.006c-0.001,0.004 -0,0.007 0.003,0.006Zm-0.236,0.008c0.003,-0.002 0.009,0 0.009,-0.005c-0.004,0.001 -0.008,0 -0.009,0.005Zm0.046,-0c-0.004,-0.001 -0.007,0.001 -0.008,0.004c0.004,0.001 0.007,-0 0.008,-0.004c0.002,-0.001 -0,-0.002 0,-0Zm-0.08,0.01c0.003,0 0.006,0 0.006,-0.004c-0.003,0 -0.006,0.001 -0.006,0.004Zm0.001,0.006c0.003,0 0.006,-0.001 0.007,-0.004c-0.004,-0.001 -0.006,0.001 -0.007,0.004Zm0.02,0.009c0.008,-0.001 0.016,-0.002 0.019,-0.008c-0.005,-0.002 -0.017,0 -0.019,0.008Zm-0.044,0.007c0.004,0.01 0.026,0.004 0.027,-0.007c-0.008,0.003 -0.019,0.004 -0.027,0.007Zm0.198,-0.007c-0.001,0 -0.003,-0 -0.003,0.001c0.001,-0 0.003,0.001 0.003,-0.001Zm-0.011,0.006c0.004,-0 0.006,-0.001 0.007,-0.004c-0.003,-0.001 -0.006,0.001 -0.007,0.004Zm-0.011,0.005c0.001,0.002 -0,-0 0,0Zm-0.215,0.002c-0.001,0.001 -0.002,0 -0.002,0.001c0.001,0 0.002,0 0.002,-0.001Zm0.201,0.004c-0.006,0 -0.01,0.001 -0.011,0.007c0.003,-0.003 0.01,-0.002 0.011,-0.007c0.004,0 0.008,-0 0.009,-0.004c-0.004,0 -0.006,0.003 -0.009,0.004Zm0.118,0.002c0.003,0.001 0.002,-0.003 0.003,-0.005c-0.002,0 -0.003,0.002 -0.003,0.005Zm-0.291,-0.003c-0.001,0.001 -0.002,0 -0.002,0.001c0.001,-0 0.002,0 0.002,-0.001Zm-0.02,0.013c0.003,-0 0.009,0.002 0.009,-0.003c-0.004,0 -0.007,0.001 -0.009,0.003Zm-0.018,0.006c0.005,-0.001 0.008,-0.004 0.015,-0.003c-0.002,-0.006 -0.015,-0.002 -0.015,0.003Zm0.138,0.056c0.014,0.001 0.024,-0.007 0.037,-0.011c0.008,-0.001 0.019,0 0.024,-0.008c-0.02,0.007 -0.043,0.01 -0.061,0.019Zm-0.082,-0.001c-0.002,0 0,0.002 0,-0c0.005,0.001 0,-0.005 0,-0Zm-0.108,0.002c-0.001,0 -0.003,0 -0.003,0.001c0.001,0 0.003,0.001 0.003,-0.001Zm0.17,0.006c0.002,0 0.003,-0.001 0.004,-0.003c-0.002,0 -0.004,0 -0.004,0.003Zm-0.022,0.006l0.005,0c0,-0.006 -0.006,-0.006 -0.005,0Zm-0.009,0.002c0.003,0 0.005,-0.001 0.005,-0.003c-0.003,-0 -0.004,0 -0.005,0.003Z" style="fill:#0b0000;"/><path d="M1.279,0.968c-0.004,-0.003 -0.009,0.005 -0.009,-0.002c0.002,0 0.009,-0.004 0.009,0.002Z" style="fill:#0b0000;"/><path d="M1.262,0.977l-0.004,-0c0,-0.003 0.001,-0.004 0.001,-0.006c0.003,0 0.003,0.002 0.003,0.006Z" style="fill:#0b0000;"/><path d="M1.262,0.977c0.008,-0.001 -0.001,0.009 -0,-0Z" style="fill:#0b0000;"/><rect x="0.237" y="0.979" width="0.003" height="0.003" style="fill:#0b0000;"/><path d="M1.254,0.979c-0.001,0.002 -0.001,0.003 -0.001,0.005l-0.007,-0c0.001,-0.002 0.004,-0.003 0.008,-0.005Z" style="fill:#0b0000;"/><path d="M1.296,0.981c0.003,-0 0.005,0.001 0.005,0.004c-0.003,-0 -0.006,-0 -0.005,-0.004Z" style="fill:#0b0000;"/><path d="M0.095,0.982c0.002,0.001 0.002,0.005 0.006,0.003c-0.001,0.003 -0.003,0.005 -0.007,0.005c0,-0.002 0.001,-0.004 0.001,-0.008Z" style="fill:#0b0000;"/><path d="M1.261,0.984c0.004,-0.002 0,0.005 0.003,0.004c-0.004,0.005 -0.004,0.006 -0.012,0.005c0.001,-0.006 0.008,-0.003 0.009,-0.009Z" style="fill:#0b0000;"/><path d="M1.273,0.99c-0,-0.001 -0,-0.002 0.001,-0.002c0,0.002 -0.001,0.002 -0.001,0.002Z" style="fill:#0b0000;"/><path d="M0.233,1.009c0.002,-0 0.004,0.001 0.003,0.004l-0.003,-0l-0,-0.004Z" style="fill:#0b0000;"/><path d="M0.97,1.034c-0,-0.002 0.002,-0.001 0.003,-0.001c0,0.001 -0.002,0.001 -0.003,0.001Z" style="fill:#0b0000;"/><path d="M0.957,1.037c-0,-0.002 0.001,-0.001 -0,-0Z" style="fill:#0b0000;"/><path d="M0.927,1.053c0.003,-0.006 0.001,0.005 -0,-0Z" style="fill:#0b0000;"/><path d="M0.907,1.087c0.007,-0.007 0.022,-0.005 0.03,-0.01c0.001,-0.004 -0.005,0 -0.003,-0.005c0.005,0.003 0.007,-0.005 0.009,-0.001c-0.001,0.004 -0.004,0.006 -0.005,0.01c-0.011,0 -0.019,0.005 -0.031,0.006Z" style="fill:#0b0000;"/><path d="M0.91,1.072c-0.002,0.002 -0.004,0.006 0.001,0.005c-0.003,0.007 -0.014,0 -0.021,0.006c0.006,-0.005 0.011,-0.01 0.02,-0.011Z" style="fill:#0b0000;"/><path d="M0.907,1.087c0.001,0.002 -0.001,0.001 0,-0Z" style="fill:#0b0000;"/><path d="M0.927,1.087c0,0.005 -0.004,0.004 -0.007,0.004c0,-0.003 0.004,-0.003 0.007,-0.004Z" style="fill:#0b0000;"/><path d="M0.9,1.096c0,-0.002 0.002,-0.002 0.003,-0.002c-0,0.002 -0.002,0.001 -0.003,0.002Z" style="fill:#0b0000;"/><path d="M0.937,1.096c0,0.003 -0.004,0 -0.006,0.001c0.001,-0.005 0.004,-0.002 0.006,-0.001Z" style="fill:#0b0000;"/><path d="M0.881,1.099c0,-0.004 0.005,-0.004 0.006,-0.002c0.011,-0.001 -0.004,0.005 -0.006,0.002Z" style="fill:#0b0000;"/><path d="M0.927,1.096c-0.002,0.002 -0.005,0.004 -0.009,0.004c0,-0.004 0.005,-0.004 0.009,-0.004Z" style="fill:#0b0000;"/><path d="M0.906,1.104c0.006,-0.005 0.005,0.004 0,0Z" style="fill:#0b0000;"/><path d="M0.856,1.114c-0,0.005 -0.003,0.005 -0.006,0.005c0.001,-0.003 0.003,-0.004 0.006,-0.005Z" style="fill:#0b0000;"/><path d="M0.864,1.126c-0.015,0.001 -0.029,0.008 -0.041,0.006c0.014,-0.004 0.03,-0.012 0.041,-0.006Z" style="fill:#0b0000;"/><path d="M0.889,1.131c0,0.004 -0.005,-0.002 0,0Z" style="fill:#0b0000;"/><path d="M0.819,1.133c-0.001,-0 0,0.002 -0,0Z" style="fill:#0b0000;"/><path d="M0.862,1.135c-0.004,0.001 -0.015,0.006 -0.017,0c0.006,-0.002 0.012,-0 0.017,0Z" style="fill:#0b0000;"/><path d="M0.831,1.137c-0.001,0.009 -0.009,0.003 -0.016,0.004c0.003,-0.004 0.013,-0.005 0.016,-0.004Z" style="fill:#0b0000;"/><path d="M0.946,1.137l0.006,-0c-0,0.001 -0,0.004 0.001,0.004c-0.001,0.002 -0.003,0.003 -0.006,0.003c-0.001,-0.003 0,-0.003 -0.001,-0.007Z" style="fill:#0b0000;"/><path d="M1.175,1.14c-0,-0.002 0.002,-0.001 0,-0Z" style="fill:#0b0000;"/><path d="M0.927,1.141c0,-0.002 0.011,-0.004 0.009,0.001c-0.004,0.001 -0.005,-0.002 -0.009,-0.001Z" style="fill:#0b0000;"/><path d="M1.175,1.14c0,0.001 -0.002,0 0,-0Z" style="fill:#0b0000;"/><path d="M1.17,1.141c-0.001,0.002 -0.002,0.005 -0.006,0.004c0.001,-0.002 0.003,-0.004 0.006,-0.004Z" style="fill:#0b0000;"/></svg>